<svg width="69" height="23" viewBox="0 0 69 23" fill="none" xmlns="http://www.w3.org/2000/svg">
<path d="M59.3417 8.03952V12.1808C59.3417 13.0054 59.037 13.7092 58.1693 13.7092C57.3016 13.7092 56.9969 13.0054 56.9969 12.1808V8.03952H54.6082V12.3804C54.6082 14.0506 55.7573 15.579 58.1693 15.579C60.5813 15.579 61.7331 14.0506 61.7331 12.3804V8.03952H59.3443H59.3417Z" fill="#ED1C24"/>
<path d="M6.47416 15.3714V11.0121H2.47655V15.3714H0V4.9459H2.47655V8.89288H6.47416V4.9459H8.95071V15.3714H6.47416Z" fill="#ED1C24"/>
<path d="M14.2783 15.6091C12.1065 15.6091 10.2833 14.0781 10.2833 11.6779C10.2833 9.27765 12.1065 7.80443 14.2783 7.80443C16.4501 7.80443 18.2888 9.27765 18.2888 11.6779C18.2888 14.0781 16.4656 15.6091 14.2783 15.6091ZM14.2783 9.80812C13.1627 9.80812 12.5842 10.7351 12.5842 11.6779C12.5842 12.6206 13.1782 13.5765 14.2938 13.5765C15.4094 13.5765 16.0034 12.618 16.0034 11.6779C16.0034 10.7377 15.3939 9.80812 14.2809 9.80812H14.2783Z" fill="#ED1C24"/>
<path d="M28.7167 15.3727V11.3679C28.7167 10.5276 28.5282 9.8238 27.6889 9.8238C26.8496 9.8238 26.488 10.588 26.488 11.4126V15.3727H24.1148V11.192C24.1148 10.3516 23.7946 9.82118 23.087 9.82118C22.3355 9.82118 21.8991 10.5118 21.8991 11.3942V15.3701H19.5103V8.0407H21.8113V9.05699H21.8397C22.1728 8.43986 22.9114 7.83587 23.9986 7.83587C25.0858 7.83587 25.765 8.29281 26.1704 9.0885C26.6482 8.32169 27.4022 7.83587 28.4739 7.83587C30.4288 7.83587 31.0951 9.45615 31.0951 10.8401V15.3753H28.7193L28.7167 15.3727Z" fill="#ED1C24"/>
<path d="M39.599 14.1044C38.9146 15.0708 37.799 15.6091 36.3632 15.6091C34.1914 15.6091 32.394 14.2094 32.394 11.7357C32.394 9.2619 34.1036 7.80443 36.2909 7.80443C38.4782 7.80443 39.9114 9.29078 39.9114 11.7934C39.9114 11.9851 39.9114 12.1926 39.8959 12.3685H34.6665C34.7388 13.1774 35.5368 13.7551 36.389 13.7551C37.1147 13.7551 37.626 13.4531 37.9488 13.0329L39.5964 14.1044H39.599ZM37.7267 10.8664C37.7267 10.1022 37.249 9.46936 36.3064 9.46936C35.3638 9.46936 34.7285 10.118 34.6691 10.8664H37.7241H37.7267Z" fill="#ED1C24"/>
<path d="M67.6959 10.2047C67.3189 9.83701 66.7688 9.54289 66.1903 9.54289C65.741 9.54289 65.2942 9.70308 65.2942 10.1311C65.2942 10.5592 65.6842 10.6616 66.6113 10.8664C67.714 11.1185 68.9148 11.6779 68.9148 13.1065C68.9148 14.9605 67.3085 15.6091 65.8288 15.6091C64.6564 15.6091 63.44 15.2126 62.686 14.4746L64.0185 13.0461C64.4394 13.5161 65.0902 13.8707 65.7849 13.8707C66.1774 13.8707 66.6397 13.7078 66.6397 13.2378C66.6397 12.7677 66.1903 12.6338 65.2064 12.3974C64.207 12.1611 63.1069 11.6464 63.1069 10.2624C63.1069 8.51084 64.7287 7.80443 66.1051 7.80443C67.1768 7.80443 68.2924 8.15632 69 8.83647L67.6985 10.2047H67.6959Z" fill="#ED1C24"/>
<path d="M53.0405 4.6H50.6363V15.3721H53.0405V4.6Z" fill="#ED1C24"/>
<path d="M43.6999 18.4002V14.5635H43.7283C44.1777 15.1964 45.0325 15.5798 45.9157 15.5798C48.0875 15.5798 49.3477 13.7258 49.3477 11.6774C49.3477 9.62911 48.0307 7.83288 45.9312 7.83288C44.8749 7.83288 44.0641 8.34759 43.6276 8.93845H43.5837V8.04034H41.3241V18.4002H43.6999ZM45.3501 9.80768C46.4786 9.80768 47.0442 10.7347 47.0442 11.6774C47.0442 12.6202 46.4786 13.5761 45.3501 13.5761C44.2216 13.5761 43.6121 12.6491 43.6121 11.6906C43.6121 10.7321 44.2784 9.80506 45.3501 9.80506V9.80768Z" fill="#ED1C24"/>
</svg>
