<svg width="54" height="23" viewBox="0 0 54 23" fill="none" xmlns="http://www.w3.org/2000/svg">
<path d="M53.9975 18.8736C53.8258 18.923 52.8823 19.1674 51.884 19.1674C49.651 19.1674 48.4636 18.265 48.4636 16.3452V4.80515H49.7133C51.0177 4.80515 51.4434 5.52185 51.4434 6.52053V7.39702H53.9975V8.07612C53.9975 9.04191 53.2905 9.58707 52.235 9.58707H51.4434V15.8541C51.4434 16.5403 51.6899 17.029 52.718 17.029C53.3304 17.029 53.898 16.8645 53.995 16.8387C53.995 17.0713 53.995 18.8783 53.995 18.8783M46.248 9.26984C46.8803 9.26984 47.5351 9.44843 47.6122 9.46958V7.39937C47.5052 7.38057 46.2829 7.13149 45.1228 7.13149C43.1537 7.13149 41.7671 7.89754 41.7671 9.91135V18.8971H44.7469V10.4612C44.7469 9.71631 45.2473 9.26514 46.2505 9.26514M29.1384 10.3813C29.1384 9.2252 28.4464 7.13384 24.4633 7.13384C22.422 7.13384 21.6005 7.64375 21.3093 7.82939C21.008 7.66725 20.0546 7.13384 18.1552 7.13384C14.4734 7.13384 13.4801 8.86332 13.4801 10.2991V18.8901H16.4848V10.4847C16.4848 9.99829 16.7761 9.26279 18.1527 9.26279C19.2256 9.26279 19.8057 9.77271 19.8057 10.4847V18.8901H22.8104V10.4847C22.8104 9.77741 23.3804 9.26279 24.4608 9.26279C25.6408 9.26279 26.1312 9.83146 26.1312 10.4847V16.9632C26.1312 18.2345 26.9154 18.9488 28.1576 18.9488H29.1359V10.3837L29.1384 10.3813ZM35.4914 7.12679C39.2528 7.12679 40.612 8.80692 40.612 11.044V14.6815C40.612 17.2382 38.8744 19.165 35.2798 19.165C31.6851 19.165 29.9599 17.64 29.9599 15.5839C29.9599 13.9437 31.1399 12.8651 33.704 12.1977C34.0774 12.1014 35.3246 11.7489 35.8921 11.5915C37.1866 11.2343 37.6024 10.957 37.6024 10.4283C37.6024 9.8714 36.8829 9.26279 35.4192 9.26279C33.6691 9.26279 33.119 10.2826 33.109 11.0181H30.3806C30.3806 8.74348 31.817 7.12444 35.4889 7.12444M35.0408 17.0243C36.1958 17.0243 37.6098 16.3358 37.6098 14.5828V13.2058C37.6098 13.2058 35.3345 13.8215 34.6972 14.0048C33.5621 14.3291 33.0144 14.8766 33.0144 15.5909C33.0144 16.3053 33.6392 17.0267 35.0408 17.0267" fill="#58595B"/>
<path d="M5.95713 19.162C1.81228 19.162 0 16.7628 0 13.7315V10.4582C0 6.24255 2.97732 4.60001 6.46994 4.60001C10.687 4.60001 12.5316 6.76656 12.5316 8.93076C12.5316 12.0937 9.10622 12.8691 7.59266 13.2827C7.15702 13.4025 5.55136 13.8537 5.19039 13.9524C3.77642 14.3377 3.37064 14.7701 3.37064 15.2612C3.37064 16.0978 4.14485 16.8239 5.95962 16.8239C7.53789 16.8239 8.69049 16.3163 8.88217 14.7607H12.1806C11.8421 17.221 10.2737 19.162 5.95713 19.162ZM6.32805 6.94515C4.49336 6.94515 3.29347 8.10362 3.29347 10.0751V12.1477C3.29347 12.1477 5.77291 11.4639 6.81099 11.1678C7.6773 10.9187 9.23069 10.3994 9.23069 9.107C9.23069 7.98143 8.26231 6.94515 6.32805 6.94515Z" fill="#FBB040"/>
</svg>
