<svg width="69" height="23" viewBox="0 0 69 23" fill="none" xmlns="http://www.w3.org/2000/svg">
<path d="M17.1865 11.2387C17.1564 11.2518 17.1251 11.2636 17.095 11.2767C17.0649 11.2933 17.036 11.3112 17.0059 11.3278C16.7699 11.4122 16.5375 11.5025 16.2991 11.5774C16.0619 11.6522 15.8198 11.7117 15.579 11.7782C15.5477 11.7865 15.5164 11.7972 15.4935 11.8044C15.6489 11.9292 15.8259 12.0302 15.9463 12.1763C16.3472 12.6612 16.3376 13.4634 15.6296 13.8259C15.502 13.8912 15.3623 13.9376 15.2407 14.0136C14.995 14.1693 14.7193 14.1432 14.4544 14.1456C12.9889 14.1539 11.5247 14.1456 10.0593 14.1527C9.69686 14.1539 9.39824 14.041 9.22003 13.7296C9.12851 13.5704 9.08517 13.3731 9.0647 13.1889C9.01171 12.7099 9.18631 12.2845 9.42834 11.8792C9.51263 11.7378 9.56441 11.5774 9.64508 11.4336C9.71854 11.304 9.81727 11.19 9.89434 11.0628C10.087 10.7419 10.258 10.4092 10.4651 10.0978C10.5975 9.89933 10.7878 9.74008 10.9335 9.54874C11.1972 9.20291 11.556 8.96998 11.9052 8.72635C12.2472 8.48748 12.6036 8.26881 12.9516 8.03588C13.2864 7.81246 13.6235 7.5926 13.9474 7.35373C14.2171 7.15526 14.4688 6.9354 14.7265 6.72149C14.93 6.55273 15.1323 6.38041 15.3322 6.20571C15.7018 5.88246 16.0595 5.54495 16.44 5.23358C16.6916 5.02799 16.8879 4.76891 17.1311 4.56331C17.3936 4.34464 17.7091 4.18539 18.0017 4C18.1426 4 18.2823 4 18.4232 4C18.4545 4.0309 18.481 4.06655 18.5171 4.09032C18.8314 4.29829 19.0252 4.56688 19.0601 4.95787C19.1228 5.66973 18.8675 6.28771 18.5159 6.87598C18.3232 7.19923 18.0992 7.50941 17.8584 7.80057C17.5538 8.16898 17.2166 8.51244 16.8867 8.87372C17.0276 8.90105 17.1889 8.92007 17.3443 8.96404C17.7224 9.07219 18.0511 9.24926 18.1727 9.6557C18.2859 10.0324 18.2016 10.3711 17.9427 10.667C17.7488 10.8881 17.5152 11.0604 17.2503 11.19C17.2287 11.2066 17.207 11.222 17.1865 11.2387Z" fill="#FF4081"/>
<path d="M0 8.96165C0.0216743 8.84519 0.0469609 8.72872 0.0650228 8.61107C0.0927177 8.42568 0.09633 8.23553 0.144495 8.05608C0.20711 7.82315 0.28899 7.59378 0.38532 7.37273C0.587613 6.90925 0.852521 6.47904 1.18004 6.09161C1.36307 5.87532 1.55212 5.66022 1.76164 5.47126C1.93383 5.31676 2.13973 5.19792 2.3348 5.06838C2.62981 4.87111 2.94529 4.7178 3.28365 4.60015C3.74363 4.4409 4.21203 4.3589 4.69729 4.31968C5.03806 4.29234 5.36919 4.31968 5.70394 4.35414C5.98209 4.38266 6.25543 4.42545 6.51793 4.52765C6.70337 4.59896 6.90566 4.63342 7.07905 4.72374C7.28737 4.8307 7.47882 4.97093 7.66667 5.11235C7.90508 5.29181 8.13146 5.48671 8.36747 5.67923C8.465 5.58297 8.56133 5.4665 8.67934 5.37618C8.92498 5.1896 9.17664 5.00659 9.43793 4.84139C9.61735 4.72731 9.81001 4.6251 10.0111 4.55499C10.2339 4.47655 10.4687 4.42426 10.7035 4.39098C11.0202 4.34463 11.3405 4.30423 11.6595 4.30304C12.0051 4.30304 12.3507 4.33513 12.6963 4.40287C13.09 4.47893 13.4706 4.59183 13.8149 4.77841C14.1858 4.97925 14.2869 5.50216 13.9715 5.85274C13.7222 6.12964 13.4272 6.17243 13.0816 6.01793C12.6879 5.84323 12.2712 5.76242 11.8402 5.75291C11.4223 5.74341 10.9985 5.73746 10.6083 5.90384C10.3182 6.02744 10.0243 6.16767 9.77629 6.35663C9.51982 6.55153 9.3115 6.81061 9.08874 7.04829C8.9912 7.15169 8.94424 7.28598 8.81901 7.37986C8.4361 7.66865 7.96288 7.5605 7.71242 7.20873C7.37045 6.72861 6.96105 6.32692 6.4228 6.05359C6.00377 5.84086 5.56788 5.75648 5.10068 5.74578C4.66478 5.73628 4.24815 5.81471 3.84236 5.95019C3.48474 6.07022 3.16685 6.26156 2.86341 6.48736C2.57442 6.70246 2.32517 6.94609 2.12528 7.23963C2.03136 7.37868 1.94948 7.52604 1.87121 7.67459C1.70143 7.99903 1.58342 8.34011 1.52322 8.70139C1.45699 9.09 1.43291 9.47505 1.47024 9.87199C1.575 10.9927 2.00728 11.9838 2.64065 12.9001C3.40406 14.0053 4.36616 14.9252 5.43663 15.7345C5.84964 16.047 6.28192 16.3346 6.70939 16.6282C6.78886 16.6828 6.89001 16.7042 6.97189 16.7553C7.04413 16.8005 7.09832 16.8765 7.17177 16.9193C7.53421 17.1309 7.89786 17.3377 8.26632 17.5385C8.31208 17.5635 8.39757 17.567 8.44212 17.5409C9.1068 17.1475 9.7775 16.7636 10.4253 16.3441C10.8371 16.0779 11.2176 15.763 11.6078 15.4623C12.0015 15.1593 12.7312 15.3126 12.7999 15.9008C12.8396 16.2372 12.6939 16.4725 12.441 16.6579C11.9076 17.0477 11.379 17.4446 10.8263 17.8059C10.3121 18.1422 9.77148 18.4369 9.23925 18.7459C9.09115 18.8327 8.93341 18.9028 8.78409 18.9872C8.74797 19.0074 8.7287 19.0549 8.70101 19.0894H8.21936C8.05078 19.0193 7.87618 18.9622 7.71604 18.8778C6.19523 18.084 4.77315 17.1475 3.49798 16.0054C2.50217 15.1141 1.61594 14.1277 0.968117 12.9548C0.518978 12.1419 0.175802 11.291 0.0650228 10.3628C0.048165 10.244 0.0216743 10.1239 0 10.0015C0 9.9219 0 9.84346 0 9.76384V9.19934C0 9.11971 0 9.04128 0 8.96165Z" fill="#FF4081"/>
<path d="M68.9963 16.5081C68.9385 16.5985 68.8892 16.6947 68.823 16.7779C68.6363 17.0132 68.3798 17.0988 68.0836 17.0988C65.1142 17.0976 62.1449 17.0988 59.1743 17.0988C59.0936 17.0988 59.0141 17.0964 58.9335 17.0928C58.618 17.081 58.341 16.867 58.2279 16.5735C58.0027 15.9935 58.4807 15.4611 59.0382 15.4635C62.0473 15.4742 65.0577 15.4695 68.0668 15.4683C68.493 15.4683 68.8073 15.6275 68.9638 16.0363C68.9686 16.047 68.9843 16.0542 68.9939 16.0625V16.5081H68.9963Z" fill="#FF4081"/>
<path d="M36.1467 11.3932V7.87306C36.0275 7.87306 35.9131 7.87306 35.7999 7.87306C35.4435 7.87306 35.0871 7.87425 34.7318 7.87306C34.4152 7.87068 34.1852 7.7257 34.0359 7.45236C33.8853 7.17665 33.8998 6.914 34.0587 6.63829C34.2237 6.35188 34.4778 6.26037 34.7788 6.26037C37.6073 6.258 40.437 6.26156 43.2655 6.25562C43.7857 6.25443 44.0662 6.62284 44.1023 7.02334C44.1397 7.43929 43.7772 7.88613 43.2715 7.88257C42.8753 7.88019 42.4792 7.88257 42.083 7.88257C42.0288 7.88257 41.9746 7.88257 41.9096 7.88257V11.3955H42.0722C42.4732 11.3955 42.8741 11.3955 43.2763 11.3955C43.7556 11.3967 44.0939 11.7461 44.1035 12.2215C44.112 12.6267 43.7146 13.0142 43.2823 13.013C40.449 13.0047 37.6145 13.0023 34.78 13.0142C34.32 13.0166 33.966 12.6731 33.9299 12.2667C33.8914 11.8246 34.243 11.4134 34.7234 11.3979C35.1388 11.3837 35.5555 11.3955 35.9721 11.3944C36.0263 11.3944 36.0805 11.3944 36.1467 11.3944V11.3932ZM40.2347 11.3848V7.8897H37.8132V11.3848H40.2347Z" fill="#FF4081"/>
<path d="M62.7687 7.87306C62.6928 7.87306 62.629 7.87306 62.5652 7.87306C61.4971 7.87306 60.4279 7.86593 59.3598 7.87662C58.9636 7.88019 58.7035 7.7043 58.553 7.36204C58.3688 6.94371 58.6241 6.3495 59.1515 6.28889C59.2996 6.27225 59.4477 6.26037 59.597 6.25918C62.3111 6.25799 65.0252 6.25918 67.7393 6.25562C67.9958 6.25562 68.2378 6.30672 68.4196 6.47428C68.5677 6.61095 68.6556 6.80942 68.6617 7.01858C68.6713 7.37867 68.4738 7.72213 68.0981 7.83978C67.991 7.87306 67.8718 7.879 67.7586 7.879C66.7098 7.88138 65.661 7.88019 64.6134 7.88019H64.4159V8.17135C64.4159 8.60156 64.4135 9.03296 64.4195 9.46317C64.4195 9.51546 64.4532 9.59152 64.4942 9.61528C65.372 10.1002 66.2522 10.5791 67.1336 11.058C67.5262 11.2719 67.9356 11.4609 68.3089 11.7033C68.7171 11.9672 68.7917 12.4984 68.4582 12.893C68.1583 13.2483 67.6659 13.2756 67.2733 12.9845C67.1649 12.9036 67.0325 12.8561 66.9121 12.7919C66.5544 12.6006 66.1944 12.4116 65.8392 12.2156C65.484 12.0207 65.1348 11.8139 64.7784 11.6202C64.5387 11.4894 64.2907 11.3718 64.0475 11.2458C63.9343 11.1876 63.8175 11.1353 63.7139 11.0628C63.6043 10.9855 63.5176 11.0141 63.4141 11.0699C62.1919 11.7354 60.9661 12.3974 59.7439 13.0629C59.4609 13.2174 59.1816 13.2388 58.9022 13.0629C58.4471 12.7789 58.3387 12.1751 58.7397 11.8067C58.9155 11.6451 59.1346 11.5227 59.3453 11.4027C59.815 11.1365 60.2906 10.8821 60.765 10.6266C61.125 10.4329 61.4875 10.244 61.8487 10.0538C62.1281 9.90645 62.4086 9.76027 62.6844 9.60815C62.7217 9.58795 62.7651 9.53447 62.7651 9.49644C62.7699 8.96284 62.7687 8.42805 62.7687 7.87187V7.87306Z" fill="#FF4081"/>
<path d="M26.5919 11.3825C26.8255 11.3979 27.0507 11.4003 27.2711 11.43C27.6022 11.4752 27.8743 11.8067 27.8755 12.1383C27.8767 12.5673 27.66 12.8882 27.2975 12.9833C27.2265 13.0023 27.1494 13.0047 27.0748 13.0047C25.3192 13.0047 23.5635 12.9999 21.8091 13.0094C21.4611 13.0118 21.2251 12.8407 21.0915 12.5721C20.9085 12.2061 20.9494 11.8935 21.3239 11.5643C21.5322 11.3813 21.7574 11.4015 21.9922 11.3967C22.3618 11.3908 22.3113 11.4443 22.3113 11.083C22.3137 10.0788 22.3113 9.07338 22.3113 8.06797V7.88971C22.1752 7.88971 22.0524 7.88852 21.9283 7.88971C21.3239 7.89684 21.0746 7.61281 20.9964 7.10654C20.9711 6.94729 21.059 6.75477 21.1421 6.60027C21.2829 6.33644 21.5454 6.25563 21.832 6.25563C23.5672 6.25325 25.3023 6.25325 27.0375 6.25563C27.3915 6.25563 27.672 6.39943 27.8129 6.72981C27.9466 7.04355 27.9153 7.35135 27.6768 7.61162C27.5215 7.78037 27.3192 7.87664 27.0856 7.88733C26.9255 7.89446 26.7653 7.88852 26.5943 7.88852V11.3789L26.5919 11.3825ZM23.9742 7.88852V11.3849H24.917V7.88852H23.9742Z" fill="#FF4081"/>
<path d="M49.8231 8.81786V7.88138C49.7592 7.88138 49.7002 7.88138 49.6424 7.88138C48.5635 7.879 47.4859 7.87663 46.407 7.87306C46.0301 7.87306 45.7025 7.66152 45.6074 7.33352C45.5135 7.00908 45.5797 6.64899 45.8952 6.41962C46.0554 6.30316 46.2179 6.258 46.4045 6.258C47.8194 6.258 49.233 6.258 50.6479 6.258C51.1187 6.258 51.4739 6.60739 51.4751 7.06969C51.4751 7.9206 51.4751 8.7727 51.4751 9.62361C51.4751 10.0907 51.1163 10.4448 50.6407 10.446C49.5618 10.4472 48.4841 10.446 47.4052 10.446H47.2354V11.392C47.298 11.392 47.357 11.392 47.4148 11.392C48.7092 11.392 50.0025 11.392 51.2969 11.392C51.663 11.392 51.9483 11.556 52.0663 11.8959C52.2458 12.4152 51.9796 12.9928 51.3571 12.9987C49.6774 13.0166 47.9964 12.9999 46.3166 13.0082C45.9626 13.0094 45.5677 12.5994 45.5725 12.25C45.5833 11.4039 45.5894 10.5565 45.5689 9.71036C45.5617 9.43702 45.6339 9.21954 45.8181 9.03653C46.006 8.84994 46.254 8.81548 46.5081 8.81548C47.5509 8.81548 48.5949 8.81548 49.6376 8.81548H49.8231V8.81786Z" fill="#FF4081"/>
<path d="M48.8574 15.4683H49.0549C51.427 15.4683 53.7992 15.4683 56.1725 15.4683C56.7517 15.4683 57.066 15.889 57.0419 16.3109C57.0154 16.7791 56.6602 17.1012 56.1556 17.0988C55.1273 17.0952 54.099 17.0988 53.0707 17.0988C51.415 17.0988 49.7605 17.0964 48.1049 17.1012C47.7147 17.1024 47.4294 16.9562 47.2692 16.6008C47.2331 16.52 47.2138 16.425 47.2126 16.3358C47.2078 15.7464 47.2126 15.1581 47.209 14.5686C47.2066 14.2133 47.5666 13.8271 47.9519 13.8282C48.3337 13.8282 48.6142 13.9542 48.778 14.2929C48.8273 14.3951 48.8478 14.5199 48.8514 14.6352C48.8623 14.9061 48.855 15.1783 48.855 15.4706L48.8574 15.4683Z" fill="#FF4081"/>
<path d="M27.5612 13.5038C27.9128 13.5133 28.2632 13.581 28.5907 13.7557C29.1193 14.0386 29.6528 14.3119 30.1838 14.5912C30.7931 14.9109 31.4036 15.2294 32.0117 15.5526C32.3729 15.7451 32.5463 16.1456 32.4403 16.52C32.344 16.8611 31.9816 17.1142 31.5962 17.0999C31.5059 17.0964 31.4072 17.0762 31.3277 17.0358C30.3367 16.52 29.3493 15.9971 28.3595 15.4789C28.1657 15.3779 27.9646 15.2924 27.7695 15.1949C27.5805 15.0998 27.4059 15.1379 27.2301 15.2306C26.1825 15.7796 25.1337 16.3287 24.0837 16.8741C23.879 16.9799 23.6827 17.1178 23.4335 17.1035C23.0686 17.0833 22.8206 16.8908 22.6881 16.5687C22.5665 16.2728 22.6243 15.9864 22.8507 15.757C22.9687 15.637 23.112 15.5312 23.2613 15.4516C23.891 15.1153 24.528 14.792 25.1614 14.4617C25.6141 14.2263 26.0645 13.9863 26.516 13.7498C26.8375 13.581 27.1843 13.5133 27.5612 13.5062V13.5038Z" fill="#FF4081"/>
<path d="M38.9836 17.1012C37.4435 17.1012 35.9046 17.1012 34.3645 17.1012C34.0515 17.1012 33.6842 16.7732 33.624 16.4487C33.5457 16.0364 33.7552 15.6953 34.0719 15.5551C34.1935 15.5004 34.3368 15.4719 34.4705 15.4719C37.5097 15.4671 40.5489 15.4659 43.5881 15.4707C44.1709 15.4707 44.472 15.9282 44.4286 16.3382C44.3744 16.8623 43.9698 17.0988 43.5424 17.0988C42.0228 17.0964 40.5032 17.0988 38.9836 17.0988V17.1024V17.1012Z" fill="#FF4081"/>
<path d="M28.8641 10.4472C28.574 10.4472 28.2982 10.446 28.0237 10.4472C27.5131 10.4507 27.1699 9.99438 27.2193 9.57368C27.2687 9.15654 27.5492 8.82022 28.0875 8.81784C28.3428 8.81665 28.5968 8.81784 28.8702 8.81784V8.61819C28.8702 8.1036 28.875 7.58782 28.869 7.07324C28.8654 6.73216 29.0243 6.47784 29.3157 6.33166C29.6468 6.16528 30.0213 6.26273 30.2838 6.50517C30.45 6.65848 30.5054 6.84387 30.5066 7.05066C30.5114 8.75842 30.515 10.4662 30.5138 12.1739C30.5138 12.4889 30.397 12.7491 30.0791 12.8822C29.9731 12.9262 29.8708 12.9821 29.7612 13.0189C29.707 13.0367 29.6372 13.0403 29.5842 13.0225C29.3494 12.944 29.1146 12.8585 28.9894 12.6244C28.9364 12.5245 28.8774 12.4116 28.875 12.3047C28.8641 11.7212 28.8702 11.1365 28.869 10.5517C28.869 10.5232 28.8666 10.4935 28.8641 10.4448V10.4472Z" fill="#FF4081"/>
<path d="M53.4367 10.4472C53.1682 10.4472 52.9178 10.4377 52.6685 10.4496C52.1712 10.4722 51.822 10.1477 51.7847 9.68185C51.7546 9.29918 52.0147 8.82738 52.6264 8.81906C52.8913 8.81549 53.155 8.81906 53.4355 8.81906V8.64436C53.4355 8.12027 53.4536 7.5938 53.4307 7.07089C53.409 6.58126 53.9124 6.17363 54.4037 6.27465C54.748 6.34595 55.0852 6.69535 55.084 7.07802C55.0816 8.77509 55.084 10.4733 55.0816 12.1704C55.0816 12.4818 54.9275 12.7373 54.6794 12.8942C54.5193 12.9952 54.3242 13.0605 54.0797 12.969C53.7859 12.8597 53.5174 12.6969 53.4416 12.3974C53.4319 12.3606 53.4367 12.319 53.4367 12.2797C53.4367 11.676 53.4367 11.0723 53.4367 10.4472Z" fill="#FF4081"/>
<path d="M30.8304 9.67471C30.8304 8.81905 30.8304 7.9622 30.8304 7.10653C30.8304 6.86766 30.8882 6.65374 31.0677 6.47786C31.471 6.08211 32.2248 6.24136 32.4151 6.77021C32.4536 6.87836 32.4741 7.00076 32.4741 7.11604C32.4777 8.7834 32.4789 10.4508 32.4741 12.1181C32.4741 12.5661 32.2369 12.9476 31.7275 13.0249C31.2844 13.0926 30.8413 12.7159 30.8316 12.3166C30.8112 11.436 30.8256 10.5553 30.8256 9.67471C30.8256 9.67471 30.8268 9.67471 30.828 9.67471H30.8304Z" fill="#FF4081"/>
<path d="M55.4091 9.6343C55.4091 8.77864 55.4199 7.92178 55.4055 7.06612C55.397 6.5349 55.8161 6.25086 56.2267 6.25681C56.6867 6.26394 57.0455 6.61571 57.0455 7.078C57.0455 8.77032 57.0479 10.4626 57.0455 12.1549C57.0455 12.6624 56.7408 12.9678 56.27 13.0272C55.863 13.0783 55.3946 12.6957 55.3995 12.2476C55.4079 11.3765 55.4019 10.5054 55.4019 9.63549C55.4043 9.63549 55.4067 9.63549 55.4091 9.63549V9.6343Z" fill="#FF4081"/>
<path d="M17.1864 11.2387C17.2081 11.222 17.2297 11.2066 17.2502 11.1899C17.2285 11.2066 17.2069 11.222 17.1864 11.2387Z" fill="#FF71A2"/>
</svg>
