<svg width="71" height="23" viewBox="0 0 71 23" fill="none" xmlns="http://www.w3.org/2000/svg">
<g clip-path="url(#clip0_1736_4463)">
<path d="M16.4788 15.8672C15.1698 15.8672 14.1116 16.457 14.1116 17.1852C14.1116 17.9134 15.1718 18.5052 16.4788 18.5052C17.7858 18.5052 18.846 17.9154 18.846 17.1852C18.846 16.455 17.7858 15.8672 16.4788 15.8672Z" fill="#59C3F0"/>
<path d="M18.3668 9.82031C17.8835 9.82031 17.4921 10.4021 17.4921 11.1203C17.4921 11.8385 17.8835 12.4182 18.3668 12.4182C18.85 12.4182 19.2415 11.8364 19.2415 11.1203C19.2415 10.4041 18.85 9.82031 18.3668 9.82031Z" fill="#59C3F0"/>
<path d="M11.3957 10.7259C11.3957 12.1443 12.0787 13.3579 13.0431 13.8595C13.349 14.018 13.6813 14.1062 14.03 14.1062C15.4858 14.1062 16.6643 12.5936 16.6643 10.7259C16.6643 8.85825 15.5572 7.44596 14.1646 7.35568C14.1197 7.35167 14.0749 7.34766 14.028 7.34766C12.5722 7.34766 11.3916 8.86026 11.3916 10.7279L11.3957 10.7259ZM14.8374 9.82118C15.3207 9.82118 15.7121 10.403 15.7121 11.1211C15.7121 11.8393 15.3207 12.4191 14.8374 12.4191C14.3542 12.4191 13.9627 11.8373 13.9627 11.1211C13.9627 10.405 14.3542 9.82118 14.8374 9.82118Z" fill="#8B6B5C"/>
<path d="M21.4743 5.85983C20.2897 4.30109 18.4098 3.29202 16.2893 3.29202C14.3237 3.29202 12.5437 4.09045 11.3897 5.41047C11.3897 5.41047 9.5424 3.24588 6.48602 3.24588C4.26765 3.24588 3.02389 4.46358 3.02389 4.46358C3.79257 0.250763 6.86526 0 6.86526 0C0.000127131 0.172525 0.000127337 5.21186 0.000127337 5.21186V17.0178C0.000127337 17.0178 -0.10182 18.5805 1.65371 18.6447C1.65371 18.6447 3.24002 18.6447 3.33789 17.0178V9.74165C3.33789 7.99232 4.7733 6.58003 6.4901 6.58003C8.20689 6.58003 9.6729 7.96023 9.70348 9.64937V17.0178C9.70348 17.9085 10.515 18.6447 11.3877 18.6447C12.2603 18.6447 13.0412 17.9085 13.0412 17.0178V13.8582C12.0748 13.3567 11.3938 12.145 11.3938 10.7246C11.3938 8.85696 12.5743 7.34435 14.0301 7.34435C14.075 7.34435 14.1198 7.35037 14.1667 7.35238C14.7315 6.87091 15.4696 6.57601 16.2893 6.57601C18.0061 6.57601 19.4415 7.98831 19.4415 9.73764V17.0138C19.4415 17.9045 20.2204 18.6407 21.1257 18.6407C22.031 18.6407 22.7793 17.9045 22.7793 17.0138V12.6826C23.393 12.6726 23.5806 12.2994 23.5806 12.2994C24.2555 11.172 23.4195 9.32037 23.4195 9.32037C22.347 6.81073 21.4764 5.85783 21.4764 5.85783L21.4743 5.85983Z" fill="#59C3F0"/>
<path d="M28.953 11.0648C28.8246 11.5663 28.6798 12.2284 28.5514 12.6958H28.4963C28.3862 12.2304 28.2047 11.5844 28.06 11.0648L26.7306 6.76373H23.6538L26.9141 14.7721C27.0222 14.9868 27.0405 15.1312 27.0405 15.2195C27.0405 15.3438 26.9854 15.4883 26.8957 15.6127C26.6225 16.06 26.1678 16.4913 25.7478 16.706C25.3278 16.9567 24.8914 17.1172 24.5448 17.1714L25.128 19.4824C25.8212 19.3922 26.8407 19.1073 27.8051 18.2828C28.8062 17.4041 29.6626 16.0079 30.9369 12.5313L33.0126 6.76172H30.0439L28.951 11.0628L28.953 11.0648Z" fill="#59C3F0"/>
<path d="M41.1358 7.09194C40.3161 6.44598 39.0968 6.125 37.3841 6.125C35.6714 6.125 34.4888 6.23333 33.6324 6.37576V18.292H36.383V13.9749C36.6379 14.011 36.9661 14.0291 37.3291 14.0291C38.9684 14.0291 40.3712 13.6359 41.3172 12.7572C42.0451 12.0751 42.4468 11.0721 42.4468 9.89046C42.4468 8.70886 41.9187 7.7038 41.1358 7.09595V7.09194ZM37.3107 11.9287C36.9111 11.9287 36.6195 11.9106 36.3809 11.8564V8.29159C36.5808 8.23743 36.9641 8.18326 37.5289 8.18326C38.9133 8.18326 39.6963 8.84528 39.6963 9.95666C39.6963 11.1924 38.7849 11.9267 37.3107 11.9267V11.9287Z" fill="#59C3F0"/>
<path d="M50.2254 16.0866C49.4792 16.3193 48.7145 16.4457 47.7664 16.4457C46.4737 16.4457 45.3442 15.908 45.2524 14.7786H50.99C51.0267 14.582 51.0818 14.1688 51.0818 13.7033C51.0818 11.5347 49.9889 9.33203 47.1119 9.33203C44.0168 9.33203 42.614 11.7875 42.614 14.0083C42.614 16.7506 44.343 18.4698 47.3668 18.4698C48.5677 18.4698 49.679 18.2913 50.5904 17.9322L50.2254 16.0866ZM46.9468 11.1415C48.2211 11.1415 48.5127 12.2529 48.5127 12.9149H45.2341C45.3075 12.1807 45.7805 11.1415 46.9447 11.1415H46.9468Z" fill="#59C3F0"/>
<path d="M52.4825 15.1162C52.4825 16.3519 52.7373 17.1945 53.2471 17.7141C53.6834 18.1614 54.4317 18.4664 55.3227 18.4664C56.1057 18.4664 56.7622 18.3761 57.1252 18.2337L57.1068 16.1734C56.907 16.2095 56.6338 16.2456 56.2872 16.2456C55.4491 16.2456 55.1943 15.7621 55.1943 14.7049V11.5333H57.1802V9.52716H55.1943V7.01953L52.4804 7.62939V9.52917H51.2979V11.5353H52.4804V15.1182L52.4825 15.1162Z" fill="#59C3F0"/>
<path d="M69.9827 19.1361L69.8156 18.767C69.7931 18.7249 69.7687 18.6827 69.7421 18.6406L69.734 18.6245C69.2141 17.7218 69.7197 16.7569 69.7401 16.7208C69.785 16.6465 69.8237 16.5743 69.8625 16.5001L69.9827 16.2212C70.0929 15.9203 70.1499 15.6054 70.1499 15.2864C70.1499 13.9182 69.1488 12.7788 67.7664 12.4518L67.2608 12.3715C67.2118 12.3675 67.1629 12.3635 67.1139 12.3615L66.9508 12.3555C66.9325 12.3555 66.9141 12.3555 66.8958 12.3555H66.8632C65.3054 12.3555 64.029 13.6013 63.5111 14.1931H57.8857V15.6455H64.2411L64.4633 15.3466C64.4755 15.3305 65.6337 13.8079 66.8652 13.8079H66.9121H66.9325H67.0079C67.9255 13.834 68.6737 14.496 68.6737 15.2844C68.6737 15.5311 68.6044 15.7658 68.4658 15.9845L68.2252 16.5442C68.0519 17.0678 67.8888 17.9204 68.2109 18.8232L68.4658 19.3668C68.6044 19.5855 68.6737 19.8202 68.6737 20.0669C68.6737 20.8553 67.9275 21.5174 67.0079 21.5414H66.8652C65.8355 21.5414 64.7814 20.432 64.4633 20.0068L64.2411 19.7078H56.0567L55.8365 20.0068C55.8243 20.0228 54.6662 21.5434 53.4346 21.5434H53.3877H53.3674H53.2919C52.3744 21.5174 51.6261 20.8553 51.6261 20.0669C51.6261 19.8202 51.6975 19.5855 51.8524 19.3407C51.9075 19.2444 51.9544 19.1501 51.9972 19.0539L50.3599 19.0398C50.2253 19.3688 50.1499 19.7159 50.1499 20.0669C50.1499 21.4351 51.151 22.5746 52.5334 22.9016L53.033 22.9818C53.0799 22.9858 53.1268 22.9898 53.1737 22.9918L53.347 22.9979C53.3653 22.9979 53.3816 22.9979 53.402 22.9979H53.4346C54.9924 22.9979 56.2688 21.7521 56.7867 21.1623H63.5152C64.0331 21.7521 65.3095 22.9979 66.8672 22.9979H66.9549L67.1282 22.9918C67.1772 22.9898 67.2241 22.9858 67.273 22.9818L67.7684 22.9016C69.1509 22.5746 70.152 21.4351 70.152 20.0669C70.152 19.748 70.0949 19.433 69.9848 19.1321L69.9827 19.1361Z" fill="#8B6B5C"/>
<path d="M58.948 19.109C59.0255 19.109 59.0704 19.0649 59.0704 18.9886V18.3567C59.0704 18.3086 59.0989 18.2965 59.1417 18.3086C59.2355 18.3366 59.3293 18.3567 59.4741 18.3567C60.0715 18.3567 60.4711 17.9314 60.4711 17.4459C60.4711 16.9605 60.0715 16.5352 59.4741 16.5352C58.8767 16.5352 58.4771 16.9605 58.4771 17.4459V18.9886C58.4771 19.0649 58.5219 19.109 58.5994 19.109H58.948ZM59.4741 17.0547C59.7351 17.0547 59.8778 17.2553 59.8778 17.4459C59.8778 17.6365 59.733 17.8391 59.4741 17.8391C59.2152 17.8391 59.0704 17.6385 59.0704 17.4459C59.0704 17.2533 59.2152 17.0547 59.4741 17.0547Z" fill="#8B6B5C"/>
<path d="M61.2969 16.5938H60.9483C60.8708 16.5938 60.8259 16.6379 60.8259 16.7141V18.8727C60.8259 19.0252 60.9136 19.1134 61.0706 19.1134H62.4938C62.5713 19.1134 62.6161 19.0693 62.6161 18.9931V18.7423C62.6161 18.6661 62.5713 18.6219 62.4938 18.6219H61.4804C61.4417 18.6219 61.4193 18.5999 61.4193 18.5617V16.7141C61.4193 16.6379 61.3744 16.5938 61.2969 16.5938Z" fill="#8B6B5C"/>
<path d="M63.2339 16.5938H62.8853C62.8078 16.5938 62.7629 16.6379 62.7629 16.7141V18.2568C62.7629 18.7423 63.1626 19.1676 63.76 19.1676C64.3574 19.1676 64.757 18.7423 64.757 18.2568V16.7141C64.757 16.6379 64.7122 16.5938 64.6347 16.5938H64.286C64.2086 16.5938 64.1637 16.6379 64.1637 16.7141V18.2568C64.1637 18.4474 64.0189 18.648 63.76 18.648C63.501 18.648 63.3563 18.4474 63.3563 18.2568V16.7141C63.3563 16.6379 63.3114 16.5938 63.2339 16.5938Z" fill="#8B6B5C"/>
<path d="M65.9049 18.6475C65.6663 18.6475 65.4441 18.4729 65.334 18.3265C65.2952 18.2723 65.2341 18.2563 65.1729 18.2944L64.9506 18.4408C64.8895 18.485 64.8793 18.5492 64.918 18.6094C65.0852 18.8702 65.4176 19.1651 65.9049 19.1651C66.5369 19.1651 66.9019 18.7939 66.9019 18.3205C66.9019 17.7909 66.4432 17.5582 65.911 17.5361C65.911 17.5361 65.546 17.5361 65.546 17.2914C65.546 17.2051 65.6357 17.0506 65.9069 17.0506C66.017 17.0506 66.1557 17.0988 66.278 17.2151C66.3269 17.2593 66.3942 17.2693 66.4493 17.2312L66.6878 17.0627C66.749 17.0185 66.749 16.9483 66.7041 16.8982C66.5166 16.6695 66.2107 16.5391 65.9069 16.5391C65.2748 16.5391 64.971 16.9323 64.971 17.2914C64.971 17.7227 65.3034 18.0156 65.9008 18.0497C65.9008 18.0497 66.3106 18.0396 66.3106 18.3225C66.3106 18.481 66.1944 18.6495 65.9069 18.6495L65.9049 18.6475Z" fill="#8B6B5C"/>
</g>
<defs>
<clipPath id="clip0_1736_4463">
<rect width="70.15" height="23" fill="white"/>
</clipPath>
</defs>
</svg>
