<svg width="68" height="23" viewBox="0 0 68 23" fill="none" xmlns="http://www.w3.org/2000/svg">
<path d="M35.3013 11.2551V12.0058H25.4261V11.2551H29.5608V10.2216H27.2334C27.0319 10.2216 26.8545 10.1494 26.7072 10.0049C26.5568 9.8604 26.4816 9.67507 26.4816 9.44576V7.65215H32.628V6.60613H26.4816V5.85538H34.0774V8.41545H27.9431V9.13164C27.9431 9.24787 27.9641 9.32954 28.0062 9.37666C28.0453 9.42378 28.1205 9.44576 28.2257 9.44576H34.2158V10.2216H31.1365V11.2551H35.3043H35.3013ZM31.1786 12.6404C31.2989 13.1084 31.5154 13.5199 31.8252 13.8717C32.1349 14.2235 32.4747 14.5188 32.8385 14.7575C33.2024 14.9962 33.5602 15.1816 33.9181 15.3166C34.2729 15.4486 34.5556 15.5302 34.7661 15.5648L34.3481 16.2213C34.1376 16.1962 33.8669 16.1396 33.5332 16.0454C33.1994 15.9512 32.8445 15.8192 32.4657 15.6465C32.0868 15.4737 31.7109 15.2632 31.332 15.0057C30.9531 14.7512 30.6103 14.4528 30.3036 14.1073C29.9969 14.4528 29.6571 14.7481 29.2812 15.0057C28.9083 15.2601 28.5354 15.4737 28.1626 15.6465C27.7927 15.8192 27.4409 15.9512 27.1071 16.0454C26.7733 16.1396 26.4967 16.1962 26.2801 16.2213L25.8652 15.5648C26.0727 15.5334 26.3553 15.4517 26.7132 15.3166C27.068 15.1847 27.4258 14.9994 27.7927 14.7575C28.1566 14.5188 28.4933 14.2235 28.8031 13.8717C29.1158 13.5199 29.3293 13.1084 29.4496 12.6404H31.1786Z" fill="#ED1C24"/>
<path d="M40.6178 12.3828C40.9035 12.3828 41.129 12.3733 41.2974 12.3576C41.4658 12.3419 41.6131 12.2791 41.7424 12.1692V9.7159H39.6856V8.94003H41.7424V5.6889H43.1678V16.1585H41.7424V12.9796C41.6372 13.0424 41.4958 13.0895 41.3154 13.1209C41.135 13.1524 40.9035 13.1681 40.6178 13.1681H37.5626C37.2769 13.1681 37.0665 13.0895 36.9281 12.9325C36.7898 12.7754 36.7206 12.5932 36.7206 12.3828V6.09097H40.8102V6.87627H38.158V11.9933C38.158 12.1126 38.1851 12.2069 38.2362 12.276C38.2873 12.3451 38.3835 12.3796 38.5159 12.3796H40.6178V12.3828ZM44.1691 5.69204H45.5975V16.1616H44.1691V5.69518V5.69204Z" fill="#ED1C24"/>
<path d="M48.3369 13.2152C48.0362 13.2152 47.8107 13.1304 47.6573 12.9576C47.504 12.7848 47.4258 12.5555 47.4258 12.2665V6.06898H52.6731V13.2152H48.3369ZM48.8752 12.1723C48.8752 12.3514 48.9624 12.4425 49.1338 12.4425H51.2477V6.84486H48.8752V12.1723ZM55.7734 8.99029H57.4363V9.7536H55.7734V16.1616H54.3119V5.68262H55.7734V8.99029Z" fill="#ED1C24"/>
<path d="M68 14.2612H58.1218V13.4759H68V14.2612ZM60.0223 11.632C59.7907 11.632 59.6073 11.5598 59.478 11.4153C59.3487 11.2708 59.2825 11.0792 59.2825 10.8436V5.98731H66.6528V6.7946H60.753V8.40289H66.5717V9.18818H60.753V10.4918C60.753 10.5923 60.765 10.674 60.7921 10.7368C60.8192 10.7996 60.8943 10.831 61.0236 10.831H66.8092V11.6289H60.0223V11.632Z" fill="#ED1C24"/>
<path d="M15.0247 20.3461C12.6161 22.8653 8.67084 22.8653 6.26219 20.3461L1.80874 15.694C-0.602914 13.1779 -0.602914 9.05663 1.80874 6.54054L6.26219 1.88843C8.67084 -0.627657 12.6161 -0.627657 15.0247 1.88843L19.4782 6.54054C21.8899 9.05977 21.8899 13.1779 19.4782 15.694L15.0247 20.3461Z" fill="#ED1C24"/>
<path d="M8.00326 17.9495C7.64842 17.9495 7.35975 17.6605 7.34471 17.2898C7.3387 17.1077 7.39884 16.9318 7.51912 16.7967C7.6394 16.6616 7.80178 16.5831 7.97619 16.5737C8.33704 16.558 8.64676 16.8532 8.6618 17.2333C8.67683 17.6134 8.39417 17.9338 8.03032 17.9495C8.0213 17.9495 8.01228 17.9495 8.00326 17.9495Z" fill="white"/>
<path d="M10.3999 5.25281C10.0391 5.25281 9.75038 5.37217 9.51583 5.61405C9.01064 6.13862 8.74602 7.21919 8.77008 8.661C8.79714 10.4358 9.20309 13.9193 10.5412 15.7161C10.7577 16.0051 10.9923 16.2375 11.2329 16.4072C11.4674 16.5705 11.732 16.7276 12.144 16.7276C12.2553 16.7276 12.3755 16.715 12.5018 16.693C13.2686 16.5014 14.2279 15.6093 14.9436 14.4219C15.0518 14.2397 15.2413 14.1329 15.4427 14.1329C15.554 14.1329 15.6622 14.1644 15.7555 14.2272C15.8878 14.3151 15.981 14.4534 16.0171 14.6136C16.0502 14.7738 16.0261 14.9402 15.9419 15.0784C15.0398 16.5799 13.846 17.6322 12.7514 17.8961C12.7484 17.8961 12.7364 17.9024 12.7244 17.9024C12.5229 17.9401 12.3274 17.9589 12.138 17.9589C11.4313 17.9589 10.9352 17.6794 10.5803 17.4343C10.2285 17.1925 9.90073 16.8689 9.60604 16.4731C7.72362 13.9476 7.59432 9.21385 7.5853 8.68299C7.56425 7.42337 7.73866 5.71771 8.67987 4.7408C9.13995 4.26648 9.7173 4.0246 10.3909 4.0246H10.4991C11.1787 4.0246 11.7531 4.26648 12.2132 4.7408C13.1544 5.71771 13.3288 7.42337 13.3077 8.68299C13.2867 9.996 13.0581 12.5372 11.7531 14.8177C11.6478 15.0031 11.4524 15.1193 11.2449 15.1193C11.1396 15.1193 11.0344 15.0879 10.9442 15.0313C10.6645 14.8554 10.5743 14.4785 10.7397 14.1863C11.6508 12.5906 12.0929 10.8378 12.126 8.66414C12.15 7.22548 11.8854 6.14177 11.3802 5.61719C11.1457 5.37532 10.857 5.25595 10.4961 5.25595H10.3909L10.3999 5.25281Z" fill="white"/>
</svg>
