<svg width="40" height="40" viewBox="0 0 40 40" fill="none" xmlns="http://www.w3.org/2000/svg">
<g clip-path="url(#clip0_1863_4291)">
<mask id="mask0_1863_4291" style="mask-type:luminance" maskUnits="userSpaceOnUse" x="0" y="0" width="40" height="40">
<path d="M0 0H40V40H0V0Z" fill="white"/>
</mask>
<g mask="url(#mask0_1863_4291)">
<path fill-rule="evenodd" clip-rule="evenodd" d="M10.1366 9.47683C10.1939 9.2837 10.2825 9.10128 10.3988 8.93683L21.4666 20.0191L10.4577 31.1368C10.3838 31.0491 10.3194 30.9537 10.2655 30.8524C10.0036 30.0704 9.91712 29.2404 10.0122 28.4213V11.4446C9.96321 10.7861 10.0051 10.1239 10.1366 9.47683ZM11.5466 8.3335H11.6111C12.3908 8.37079 13.1376 8.65921 13.7399 9.15572L25.5011 15.9457L22.3333 19.1413L11.5466 8.3335ZM26.6077 16.5846L29.1211 18.0368C29.6168 18.2683 30.0619 18.5953 30.4311 18.9991C30.5823 19.1671 30.6945 19.3666 30.7597 19.5831C30.8248 19.7997 30.8412 20.0279 30.8078 20.2516C30.7743 20.4752 30.6918 20.6887 30.5662 20.8767C30.4405 21.0647 30.2749 21.2226 30.0811 21.3391C29.6513 21.6544 29.1977 21.936 28.7244 22.1813L26.6022 23.4124L23.2111 20.0157L26.6077 16.5846ZM25.4966 24.0535L13.0688 31.2591C12.741 31.4819 12.3615 31.6169 11.9666 31.6513C11.867 31.6628 11.7668 31.668 11.6666 31.6668L22.3333 20.8891L25.4966 24.0535Z" fill="black"/>
</g>
</g>
<defs>
<clipPath id="clip0_1863_4291">
<rect width="40" height="40" fill="white"/>
</clipPath>
</defs>
</svg>
