<svg width="70" height="23" viewBox="0 0 70 23" fill="none" xmlns="http://www.w3.org/2000/svg">
<g clip-path="url(#clip0_75_95)">
<path d="M6.97992 10.8937C7.04187 10.8716 7.11488 10.881 7.16521 10.8207C7.1807 10.8024 7.22385 10.8024 7.25482 10.8019C7.51203 10.7958 7.76978 10.7903 8.02699 10.7869C8.13374 10.7858 8.23441 10.803 8.32955 10.8616C8.40256 10.907 8.48664 10.9358 8.56573 10.9701C8.83068 11.0851 9.06023 11.2472 9.23446 11.4806C9.24553 11.495 9.25493 11.5149 9.26986 11.5221C9.37109 11.5714 9.39764 11.6698 9.43525 11.7622C9.4618 11.8286 9.47176 11.9049 9.54366 11.9475C9.55749 11.9558 9.55749 11.9879 9.56247 12.0089C9.56634 12.0266 9.56247 12.0521 9.57242 12.0615C9.71237 12.1843 9.67531 12.3663 9.72896 12.5179C9.77874 12.6589 9.78648 12.805 9.77708 12.9521C9.77266 13.0246 9.75828 13.0965 9.74389 13.1684C9.72288 13.2758 9.69909 13.3831 9.67365 13.4893C9.66535 13.5236 9.65042 13.5562 9.63493 13.5883C9.62331 13.6126 9.59732 13.6337 9.594 13.658C9.5763 13.7958 9.48946 13.9014 9.42363 14.0137C9.31135 14.204 9.15149 14.3567 8.985 14.5027C8.78367 14.6798 8.55246 14.7981 8.30355 14.89C8.24934 14.9099 8.20399 14.9536 8.15089 14.9785C7.93296 15.0803 7.70396 15.1632 7.4993 15.2861C7.39476 15.3486 7.25206 15.3353 7.17849 15.4515C7.03191 15.4974 6.89861 15.5721 6.76143 15.6384C6.64638 15.6943 6.53852 15.7646 6.42292 15.8177C6.26528 15.8896 6.10266 15.9515 5.94225 16.0174C5.91293 16.0295 5.86979 16.0301 5.85486 16.0511C5.78682 16.1468 5.66458 16.149 5.57829 16.2165C5.50639 16.2729 5.38636 16.2696 5.31943 16.3288C5.23646 16.4013 5.11367 16.3946 5.04784 16.4876C5.04065 16.4975 5.02683 16.5064 5.01466 16.5081C4.75303 16.5518 4.53841 16.7044 4.31163 16.8228C4.19935 16.8815 4.08153 16.9235 3.97035 16.9821C3.8636 17.0386 3.73527 17.0535 3.64843 17.1498C3.63516 17.1647 3.6075 17.1724 3.58593 17.173C3.52343 17.1752 3.48305 17.204 3.43216 17.2416C3.35085 17.3019 3.24354 17.3262 3.1473 17.3672C3.11522 17.3804 3.0848 17.397 3.05437 17.4136C3.04276 17.4203 3.03446 17.4352 3.02229 17.4385C2.88733 17.4778 2.75347 17.5359 2.61574 17.5492C2.41994 17.5685 2.22026 17.5547 2.02224 17.5547C1.99956 17.5547 1.96858 17.558 1.95531 17.5453C1.87898 17.4734 1.7761 17.4878 1.68815 17.4568C1.58084 17.4192 1.48349 17.3528 1.37508 17.3201C1.18868 17.2643 1.07473 17.1066 0.914877 17.0137C0.842971 16.9722 0.796508 16.8881 0.737877 16.8239C0.47846 16.5396 0.332434 16.1977 0.234531 15.8315C0.226234 15.8011 0.22734 15.7679 0.226787 15.7358C0.225128 15.6025 0.231212 15.4692 0.221256 15.3369C0.203556 15.098 0.267165 14.8739 0.337413 14.651C0.355666 14.5929 0.387747 14.5381 0.421488 14.4867C0.544282 14.2992 0.624486 14.0812 0.816421 13.9418C0.858458 13.9108 0.880583 13.8527 0.921515 13.8201C0.989549 13.7664 1.06422 13.7205 1.13834 13.6757C1.28879 13.5844 1.44035 13.4948 1.59301 13.4074C1.63173 13.3853 1.67764 13.3759 1.71912 13.3576C2.01726 13.2276 2.31484 13.0965 2.61298 12.966C2.68544 12.8681 2.83312 12.8996 2.90558 12.7967C2.9183 12.779 2.96532 12.7795 2.99574 12.7818C3.04055 12.7845 3.04995 12.7569 3.0588 12.7253C3.10858 12.717 3.15836 12.7087 3.20759 12.701C3.23856 12.6905 3.26954 12.6794 3.29941 12.6689C3.29001 12.6562 3.28226 12.6451 3.27396 12.6341C3.3243 12.6169 3.39621 12.6147 3.41999 12.5798C3.47254 12.5024 3.54444 12.5195 3.61248 12.509C3.68826 12.4554 3.76735 12.41 3.86028 12.389C3.87743 12.3851 3.88849 12.3563 3.90176 12.3386C3.93716 12.3309 3.97201 12.3232 4.00741 12.3154C4.02345 12.3104 4.03894 12.3049 4.05885 12.2988C4.04281 12.2822 4.03175 12.2701 4.02069 12.2584C4.09425 12.2402 4.16782 12.2219 4.24194 12.2037C4.25964 12.1838 4.27734 12.1638 4.29504 12.1439C4.33265 12.1367 4.36971 12.1301 4.40732 12.1229C4.43166 12.1046 4.45544 12.0869 4.47978 12.0687C4.5185 12.0582 4.55667 12.0477 4.59539 12.0372C4.61419 12.0222 4.633 12.0067 4.65125 11.9918C4.70601 11.9713 4.76022 11.9509 4.81498 11.9298C4.83434 11.9116 4.8537 11.8933 4.87306 11.8751L5.02074 11.8159C5.02793 11.8148 5.03346 11.8115 5.03733 11.8054C5.08103 11.7257 5.16455 11.7572 5.22927 11.7368C5.23259 11.7185 5.23646 11.6997 5.23978 11.6815L5.36589 11.6549C5.3858 11.6355 5.40572 11.6162 5.42508 11.5968C5.49311 11.5791 5.56115 11.5614 5.62863 11.5437C5.65352 11.5249 5.67786 11.5066 5.70275 11.4878C5.73593 11.4795 5.76912 11.4712 5.80286 11.4635C5.83273 11.4414 5.86205 11.4192 5.89192 11.3977C5.9251 11.391 5.95829 11.3844 5.99203 11.3772L6.05951 11.3208C6.10653 11.3025 6.1541 11.2848 6.20111 11.2666C6.22047 11.2483 6.24039 11.2306 6.25975 11.2123C6.31119 11.1952 6.36263 11.1781 6.41407 11.1603C6.43509 11.1421 6.45555 11.1233 6.47657 11.105C6.51142 11.0956 6.54627 11.0857 6.58111 11.0763C6.60103 11.0613 6.62094 11.0464 6.64085 11.0309C6.67404 10.9833 6.72105 10.9833 6.77084 10.9938C6.79185 10.9728 6.81287 10.9518 6.83389 10.9308C6.88146 10.9186 6.92903 10.907 6.9766 10.8948L6.97992 10.8937Z" fill="#EDEA84"/>
<path d="M6.20333 11.2649C6.15631 11.2831 6.10874 11.3008 6.06173 11.3185C6.04569 11.3163 6.02024 11.308 6.01526 11.3147C6.00309 11.3313 6.00088 11.3545 5.99424 11.3755C5.96106 11.3822 5.92787 11.3888 5.89468 11.3954C5.81282 11.3777 5.81282 11.3777 5.80563 11.4618C5.77244 11.4701 5.73925 11.4784 5.70607 11.4862C5.6231 11.4779 5.61259 11.4862 5.63195 11.542C5.56391 11.5597 5.49588 11.5774 5.4284 11.5946C5.36645 11.5714 5.35815 11.6029 5.36866 11.6532C5.32662 11.6621 5.28458 11.6709 5.24254 11.6798C5.23923 11.698 5.23535 11.7168 5.23204 11.7357C5.16732 11.7561 5.0838 11.7246 5.0401 11.8037C5.0224 11.7943 5.00415 11.786 4.98645 11.7771C4.98368 11.7827 4.98147 11.7882 4.9787 11.7937C4.99364 11.8009 5.00802 11.8076 5.02295 11.8148C4.97372 11.8347 4.9245 11.854 4.87527 11.874C4.83102 11.8662 4.79672 11.8684 4.81719 11.9287C4.76243 11.9492 4.70822 11.9697 4.65402 11.9896C4.60534 11.9757 4.58985 11.9885 4.5976 12.036C4.55888 12.0465 4.52071 12.0571 4.48199 12.0676C4.42226 12.036 4.42004 12.0377 4.40898 12.1218C4.37137 12.129 4.33431 12.1356 4.29725 12.1428C4.227 12.1356 4.2259 12.1367 4.24415 12.2025C4.17058 12.2208 4.09702 12.2391 4.02345 12.2573C4.01903 12.2761 4.0146 12.2955 4.01018 12.3143C3.97478 12.322 3.93993 12.3298 3.90508 12.3375C3.88075 12.3408 3.85364 12.3375 3.83262 12.348C3.76625 12.3818 3.70264 12.42 3.62133 12.4659C3.62133 12.4642 3.61856 12.4863 3.61524 12.5079C3.54666 12.5184 3.4753 12.5013 3.42276 12.5787C3.39897 12.6136 3.32707 12.6158 3.27673 12.6324C3.22142 12.6219 3.20095 12.6462 3.2098 12.6993C3.16002 12.7076 3.11024 12.7154 3.06101 12.7237C3.03059 12.7259 2.9786 12.7187 2.97306 12.7314C2.93766 12.8111 2.86797 12.7989 2.80713 12.7983C2.47138 12.7961 2.13618 12.7906 1.80043 12.7856C1.78218 12.7856 1.75508 12.7895 1.74733 12.7795C1.68428 12.7015 1.59522 12.7065 1.50894 12.6977C1.48847 12.6954 1.46745 12.6805 1.45086 12.6667C1.43758 12.6556 1.43205 12.6246 1.42154 12.6241C1.33968 12.6191 1.28934 12.5455 1.22131 12.5278C1.09686 12.4957 1.02495 12.3995 0.937003 12.327C0.839652 12.2468 0.762214 12.1434 0.679245 12.0465C0.651036 12.0134 0.632783 11.9708 0.611764 11.932C0.605126 11.9204 0.607892 11.8994 0.599042 11.8939C0.464079 11.8137 0.480673 11.6505 0.404894 11.5443C0.327457 11.4353 0.330222 11.3219 0.311969 11.2063C0.309203 11.1891 0.2998 11.1609 0.288738 11.1581C0.238956 11.146 0.244487 11.1072 0.243934 11.074C0.242275 10.8633 0.241722 10.652 0.241722 10.4412C0.241722 10.4185 0.240616 10.3853 0.253891 10.3759C0.339072 10.3145 0.321925 10.2232 0.329669 10.1397C0.334094 10.0894 0.351794 10.0501 0.377791 10.0047C0.437529 9.90072 0.472929 9.78234 0.526582 9.64957C0.56862 9.63242 0.613976 9.59149 0.623933 9.51183C0.628358 9.47808 0.670949 9.44821 0.698605 9.41944C0.860118 9.25293 1.00614 9.06872 1.22684 8.9708C1.27718 8.87787 1.42044 8.92102 1.46137 8.81259C1.46469 8.80429 1.4857 8.79932 1.49843 8.79876C1.56978 8.79434 1.62731 8.76502 1.68372 8.71966C1.73572 8.67817 1.82975 8.70361 1.86017 8.61621C1.86349 8.60681 1.90276 8.60902 1.92599 8.60736C1.96748 8.60404 2.01062 8.60625 2.02611 8.5537C2.02832 8.54595 2.03773 8.53378 2.04326 8.53378C2.13231 8.536 2.19813 8.47902 2.26617 8.43753C2.31761 8.40655 2.41219 8.44527 2.42547 8.34238C2.42713 8.33132 2.50291 8.33685 2.53831 8.3208C2.65004 8.26936 2.75679 8.20795 2.86797 8.15651C3.03778 8.07851 3.21312 8.01157 3.37961 7.92638C3.44378 7.89374 3.5013 7.84506 3.57099 7.81851C3.6252 7.79749 3.67664 7.76983 3.72808 7.74383C3.77344 7.72115 3.81824 7.69625 3.86305 7.67246C3.99856 7.6 4.16173 7.58561 4.27789 7.47387C4.37469 7.48825 4.42004 7.39753 4.49527 7.36821C4.57547 7.33723 4.65789 7.30957 4.73533 7.2714C4.84097 7.2194 4.94109 7.15523 5.04674 7.10268C5.138 7.05787 5.2348 7.02302 5.32828 6.98263C5.35594 6.97046 5.38249 6.95498 5.40904 6.94004C5.43503 6.92566 5.45826 6.90187 5.48592 6.89578C5.53902 6.88417 5.59821 6.8897 5.62088 6.82332C5.62199 6.81944 5.62752 6.81391 5.63084 6.81446C5.74423 6.82498 5.81061 6.72153 5.91183 6.6994C5.94833 6.69166 5.97931 6.65736 6.00641 6.62361C6.16129 6.61532 6.28519 6.52791 6.41351 6.44991C6.43951 6.43387 6.47381 6.43276 6.50257 6.42004C6.54239 6.40178 6.58056 6.37966 6.61873 6.35808C6.63034 6.35144 6.63864 6.33817 6.65025 6.33319C6.74539 6.29281 6.84053 6.25298 6.93677 6.21481C7.24044 6.09532 7.55738 6.118 7.87322 6.12574C7.91028 6.12685 7.94678 6.13072 7.98329 6.13127C8.08507 6.13183 8.18297 6.13957 8.27755 6.18825C8.33674 6.21868 8.40754 6.22753 8.47447 6.24025C8.50765 6.24634 8.53752 6.24523 8.54471 6.28783C8.54637 6.29778 8.56186 6.31106 8.57292 6.31327C8.78035 6.36085 8.90757 6.53455 9.0818 6.63523C9.162 6.6817 9.23668 6.75915 9.28203 6.84046C9.33347 6.9334 9.40261 7.00974 9.45959 7.09659C9.47618 7.12204 9.47839 7.15689 9.48669 7.18732C9.49167 7.20446 9.49333 7.23544 9.50107 7.2371C9.60617 7.25646 9.57796 7.34498 9.59344 7.41025C9.59676 7.42353 9.59566 7.44455 9.6034 7.44898C9.69854 7.50263 9.66701 7.6 9.6836 7.67966C9.70352 7.77425 9.66867 7.88323 9.75717 7.96068C9.75772 8.13106 9.8064 8.29978 9.719 8.47017C9.67586 8.55425 9.68803 8.66655 9.67586 8.76668C9.66922 8.82144 9.69743 8.89059 9.61225 8.91272C9.60451 8.91493 9.59787 8.93429 9.59621 8.94702C9.58681 9.02225 9.59787 9.10744 9.49554 9.13289C9.50052 9.21366 9.43027 9.25902 9.40483 9.32263C9.33181 9.50574 9.18689 9.62357 9.05304 9.75412C9.00381 9.80225 8.95735 9.85315 8.91033 9.90293C8.90425 9.90957 8.89816 9.92395 8.89374 9.9234C8.7809 9.90459 8.7361 10.0318 8.63543 10.0434C8.60556 10.0468 8.57956 10.0794 8.5519 10.0982C8.53752 10.1082 8.52425 10.122 8.50821 10.1281C8.41307 10.1646 8.31627 10.1978 8.22113 10.2348C8.20178 10.242 8.18684 10.2603 8.17025 10.273C8.14978 10.2885 8.13153 10.3117 8.10885 10.3184C8.05907 10.3322 7.99325 10.3134 7.97997 10.3908C7.85939 10.3853 7.78085 10.4971 7.67464 10.5081C7.59389 10.517 7.59444 10.6149 7.51147 10.6088C7.44676 10.6038 7.37208 10.6027 7.33171 10.6796C7.32396 10.6945 7.29188 10.699 7.27031 10.7028C7.22827 10.7106 7.18568 10.7134 7.18789 10.7731C7.18789 10.7792 7.17628 10.7914 7.17019 10.7908C7.08391 10.7858 7.02583 10.8301 6.97881 10.8954C6.93124 10.9075 6.88367 10.9191 6.8361 10.9313C6.76973 10.9075 6.79351 10.9728 6.77249 10.9944C6.72271 10.9833 6.6757 10.9839 6.64251 11.0309C6.5883 11.0043 6.58277 11.0082 6.58222 11.0768C6.54737 11.0862 6.51252 11.0962 6.47768 11.1056C6.455 11.1045 6.43232 11.1039 6.40964 11.1034C6.4113 11.1227 6.41352 11.1421 6.41517 11.1609C6.36373 11.178 6.31229 11.1952 6.26085 11.2123C6.23375 11.2217 6.17899 11.2024 6.20167 11.2665L6.20333 11.2649Z" fill="#509154"/>
<path d="M50.9431 14.495C50.9431 14.5818 50.9431 14.6449 50.9431 14.7085C50.9431 15.4841 50.9431 16.2597 50.9431 17.0347C50.9431 17.0529 50.9409 17.0717 50.9436 17.0894C50.9829 17.3229 50.8795 17.5132 50.7578 17.698C50.7467 17.7145 50.7235 17.724 50.7047 17.7339C50.6931 17.74 50.6687 17.7372 50.666 17.7439C50.6339 17.8407 50.5448 17.8468 50.4685 17.8556C50.3457 17.87 50.2213 17.8689 50.0979 17.8717C50.0614 17.8728 50.0243 17.8678 49.9884 17.8606C49.9629 17.8556 49.9331 17.8484 49.9154 17.8318C49.8341 17.756 49.7544 17.678 49.6775 17.5973C49.6538 17.5718 49.6427 17.5342 49.625 17.5027C49.6012 17.4612 49.5713 17.4219 49.5547 17.3782C49.5387 17.3373 49.5293 17.2908 49.5293 17.2471C49.5293 17.0175 49.5354 16.7885 49.5354 16.5589C49.5354 14.916 49.5337 13.2735 49.5321 11.6306C49.5321 11.5337 49.5476 11.4436 49.578 11.3495C49.6123 11.2439 49.6084 11.126 49.6211 11.0132C49.6239 10.9861 49.6145 10.9501 49.6289 10.933C49.7257 10.8185 49.7035 10.6625 49.7716 10.538C49.7992 10.4871 49.7887 10.403 49.8269 10.372C49.9126 10.3012 49.8966 10.1906 49.9585 10.1115C50.0166 10.0379 50.0398 9.93668 50.0996 9.86476C50.1549 9.79783 50.1753 9.70378 50.2644 9.66064C50.2932 9.64681 50.3087 9.60366 50.3269 9.57157C50.4171 9.41668 50.5653 9.31489 50.6848 9.18766C50.8214 9.04217 51.0161 8.97025 51.1583 8.83085C51.1677 8.82144 51.1809 8.81481 51.1931 8.80927C51.2999 8.76059 51.4061 8.71081 51.5145 8.66544C51.5731 8.64055 51.6351 8.62285 51.6953 8.60293C51.7081 8.59851 51.7269 8.60127 51.7352 8.59353C51.8425 8.484 51.9968 8.52438 52.1218 8.47183C52.1345 8.4663 52.1539 8.47515 52.1655 8.49672C52.1406 8.48953 52.1157 8.48289 52.0665 8.46906C52.1799 8.4237 52.2689 8.40987 52.3646 8.42259C52.4111 8.42868 52.4603 8.40821 52.5084 8.40876C52.7983 8.41098 53.0881 8.41485 53.3774 8.41983C53.4089 8.41983 53.4499 8.41983 53.4698 8.43808C53.5328 8.49506 53.6081 8.50668 53.6855 8.50889C53.8509 8.51387 53.9892 8.60404 54.1402 8.65161C54.4212 8.73957 54.6441 8.93596 54.8897 9.08808C55.0014 9.15723 55.0838 9.27395 55.1767 9.37132C55.2956 9.49634 55.4223 9.61583 55.5257 9.75247C55.617 9.87417 55.6823 10.0158 55.7553 10.1502C55.8045 10.2415 55.8698 10.3261 55.8786 10.4351C55.9937 10.5358 55.9467 10.704 56.0396 10.8163C56.0617 10.8434 56.0529 10.8959 56.059 10.9368C56.0717 11.0243 56.0612 11.1106 56.1159 11.1974C56.1547 11.2583 56.137 11.3567 56.1381 11.4386C56.1403 11.6084 56.1281 11.7788 56.1403 11.9475C56.1569 12.1815 56.0816 12.3995 56.0418 12.6235C56.0197 12.7469 55.9904 12.8797 55.924 12.9826C55.8449 13.1048 55.8172 13.2486 55.7332 13.3654C55.7171 13.3875 55.7 13.4107 55.6917 13.4362C55.6563 13.5435 55.5849 13.6231 55.5042 13.6973C55.4881 13.7117 55.4776 13.7332 55.4671 13.7526C55.3687 13.9324 55.2204 14.0696 55.0683 14.2012C54.9499 14.3036 54.8211 14.3926 54.6994 14.4911C54.6341 14.5437 54.5766 14.6062 54.487 14.6172C54.4826 14.6172 54.477 14.6194 54.4748 14.6228C54.3913 14.7323 54.2502 14.7306 54.144 14.7943C54.0312 14.8623 53.9079 14.8877 53.7801 14.9032C53.7607 14.9054 53.7281 14.9198 53.727 14.9314C53.7214 14.979 53.6888 14.9735 53.6578 14.9763C53.493 14.9912 53.3276 15.0034 53.1633 15.0216C53.1213 15.0266 53.082 15.057 53.04 15.0626C52.8989 15.0814 52.7557 15.1278 52.6196 15.036C52.5925 15.0177 52.5505 15.0188 52.5145 15.0155C52.3773 15.0017 52.2263 15.0211 52.1063 14.9691C51.9636 14.9077 51.8071 14.9032 51.6716 14.8302C51.6367 14.8114 51.593 14.8092 51.5548 14.7948C51.4708 14.7627 51.3884 14.7273 51.3048 14.693C51.2905 14.5818 51.1549 14.6244 51.1101 14.5414C51.0946 14.5121 51.0205 14.5143 50.942 14.4944L50.9431 14.495ZM52.8508 9.84595C52.6373 9.8537 52.4177 9.81221 52.2169 9.92672C52.1981 9.93723 52.1721 9.93391 52.1495 9.93889C52.1318 9.94276 52.1047 9.94276 52.0986 9.95383C52.0438 10.0551 51.8967 10.0197 51.8458 10.1253C51.7141 10.158 51.6334 10.2608 51.5427 10.3477C51.4896 10.3991 51.4177 10.4384 51.4033 10.5214C51.3275 10.5291 51.322 10.59 51.307 10.6448C51.3037 10.6575 51.2954 10.6719 51.2849 10.6791C51.1594 10.7681 51.1367 10.9208 51.0747 11.0442C51.0167 11.1587 50.9918 11.2981 50.9624 11.4275C50.911 11.6521 50.9464 11.8828 50.9735 12.1096C50.9746 12.1179 51.0073 12.1207 51.0122 12.1317C51.0244 12.16 51.0294 12.1909 51.0371 12.2208C51.0598 12.3088 51.0703 12.4023 51.1085 12.4836C51.1571 12.5887 51.2346 12.68 51.2866 12.784C51.3198 12.8498 51.3707 12.9018 51.4094 12.9621C51.4663 13.05 51.5554 13.1192 51.6362 13.19C51.687 13.2343 51.7523 13.2625 51.8038 13.3062C51.9675 13.4439 52.15 13.5374 52.3641 13.5656C52.395 13.5695 52.4255 13.5828 52.4564 13.59C52.5272 13.606 52.598 13.6326 52.6694 13.6342C52.8801 13.6397 53.0876 13.6303 53.2972 13.5767C53.4808 13.5297 53.6451 13.4572 53.8055 13.3665C53.8592 13.336 53.9106 13.2995 53.9576 13.2597C54.0821 13.154 54.2137 13.0545 54.3221 12.9344C54.409 12.8382 54.4643 12.7137 54.5345 12.6031C54.6197 12.4697 54.5871 12.2911 54.7049 12.1699C54.7121 12.1622 54.7082 12.1434 54.7088 12.1295C54.716 11.942 54.7309 11.7545 54.7287 11.5669C54.7259 11.3324 54.6667 11.1111 54.5534 10.902C54.4814 10.7698 54.414 10.632 54.3161 10.5214C54.2176 10.4102 54.133 10.2708 53.9692 10.2321C53.9565 10.2293 53.9488 10.2061 53.9377 10.1928C53.9217 10.1734 53.9084 10.1458 53.8874 10.138C53.7967 10.1043 53.7303 10.0324 53.6374 9.99532C53.4659 9.92672 53.3038 9.84153 53.1125 9.84651C53.0251 9.84872 52.9377 9.84651 52.8503 9.84651L52.8508 9.84595Z" fill="#509154"/>
<path d="M46.8415 13.5374C46.8332 13.5236 46.8244 13.5098 46.8194 13.5009C46.7918 13.6077 46.7879 13.6077 46.7082 13.6835C46.6496 13.7393 46.5921 13.7985 46.544 13.8638C46.4671 13.9689 46.3747 14.0552 46.2762 14.1398C46.112 14.2815 45.9322 14.3987 45.7475 14.5105C45.6534 14.5675 45.5682 14.6449 45.4681 14.6853C45.2447 14.7755 45.0201 14.8678 44.7767 14.8927C44.6567 14.9049 44.5311 14.8916 44.426 14.9724C44.4166 14.9796 44.3995 14.9796 44.3857 14.9796C44.1511 14.9785 43.9166 14.9768 43.6821 14.9746C43.6445 14.9746 43.6174 14.9641 43.6411 14.9254C43.4509 14.8961 43.2573 14.8678 43.0642 14.8352C42.994 14.8236 42.9182 14.8208 42.8679 14.7561C42.8601 14.7461 42.8463 14.7356 42.8347 14.734C42.7407 14.7218 42.6411 14.7212 42.5996 14.6106C42.4359 14.5846 42.3479 14.4336 42.2108 14.3716C42.0288 14.2898 41.9265 14.1288 41.7865 14.0054C41.6659 13.8992 41.5592 13.7775 41.4463 13.6624C41.4403 13.6558 41.4275 13.6514 41.4264 13.6447C41.4026 13.5081 41.2959 13.4235 41.219 13.32C41.1963 13.2896 41.1654 13.2658 41.1272 13.2271C41.1228 13.1867 41.136 13.1148 41.1067 13.0716C40.9972 12.9107 40.9723 12.7209 40.9104 12.5444C40.8733 12.4382 40.865 12.3215 40.849 12.2087C40.7898 11.7927 40.8014 11.3761 40.8617 10.9623C40.8827 10.8196 40.9413 10.6818 40.9834 10.5419C40.995 10.5026 41.0094 10.4644 41.0221 10.4252C41.0376 10.3787 41.0138 10.3118 41.0929 10.2985C41.1017 10.2968 41.1084 10.267 41.1111 10.2492C41.13 10.1292 41.198 10.0313 41.2594 9.93227C41.3014 9.86478 41.3136 9.78568 41.3805 9.72593C41.4629 9.65291 41.5177 9.54946 41.5918 9.46593C41.6997 9.34423 41.8103 9.22474 41.9276 9.11133C42.0022 9.03887 42.0918 8.98133 42.1731 8.9155C42.2959 8.81593 42.4304 8.73904 42.5786 8.68095C42.6693 8.64555 42.7456 8.57584 42.8347 8.53602C42.9044 8.50504 42.984 8.49563 43.0593 8.47738C43.0626 8.47682 43.0676 8.48236 43.0714 8.48512C43.0676 8.48236 43.0631 8.4807 43.0604 8.47738C43.0576 8.47406 43.0559 8.46908 43.0543 8.46521C43.0936 8.44861 43.1317 8.42538 43.1732 8.41597C43.3109 8.38333 43.4498 8.35291 43.5892 8.32636C43.6522 8.31419 43.7175 8.30976 43.7816 8.30921C44.0023 8.30755 44.2236 8.30589 44.4443 8.31087C44.5289 8.31253 44.6196 8.30423 44.6888 8.37614C44.7015 8.38887 44.733 8.38333 44.7551 8.38721C44.972 8.42372 45.1805 8.48512 45.3785 8.58304C45.4598 8.62342 45.5505 8.64665 45.6307 8.6898C45.7248 8.74014 45.8127 8.80321 45.9134 8.86738C45.9305 8.8624 45.9648 8.85244 46.0036 8.84138C46.0047 8.82699 46.0069 8.80874 46.0069 8.79104C46.0074 7.99278 46.008 7.19397 46.0091 6.39572C46.0091 6.31329 46.0085 6.23031 46.0113 6.14789C46.0196 5.92716 46.0854 5.74516 46.2901 5.61627C46.4234 5.53219 46.5495 5.45197 46.7105 5.46193C46.8653 5.47133 47.0108 5.51116 47.117 5.63729C47.1314 5.65444 47.1518 5.66661 47.1695 5.6821C47.2874 5.78444 47.3753 5.8984 47.372 6.06878C47.3692 6.22367 47.3925 6.37912 47.3925 6.53457C47.3941 8.17257 47.3958 9.81112 47.3925 11.4491C47.3919 11.7241 47.3692 11.999 47.3548 12.2734C47.3532 12.3049 47.3432 12.3359 47.3344 12.3669C47.3283 12.389 47.3161 12.4089 47.3095 12.431C47.2547 12.6136 47.2011 12.7961 47.1474 12.9787C47.1463 12.9831 47.1485 12.9909 47.1463 12.992C47.1341 12.9981 47.1198 13.0008 47.1081 13.0086C47.1015 13.013 47.0965 13.023 47.0949 13.0318C47.0595 13.2193 46.8957 13.3477 46.8698 13.5396C46.8609 13.5385 46.8515 13.5374 46.8426 13.5363L46.8415 13.5374ZM45.5494 10.507C45.5411 10.3881 45.4952 10.2863 45.3829 10.2443C45.3133 10.2183 45.259 10.1818 45.2109 10.1298C45.1849 10.1015 45.1622 10.0462 45.1374 10.0457C45.0428 10.044 44.9991 9.96491 44.9299 9.92785C44.7374 9.82385 44.5333 9.76521 44.3154 9.7558C44.1777 9.74972 44.0388 9.75802 43.9011 9.74972C43.7125 9.73865 43.5466 9.82772 43.3668 9.85648C43.3546 9.8587 43.3369 9.86589 43.3331 9.87529C43.3137 9.91844 43.275 9.92342 43.2379 9.94168C43.1727 9.97321 43.1212 10.0302 43.0438 10.0473C43.0183 10.0529 43.0062 10.1159 42.9802 10.1231C42.8297 10.1635 42.7539 10.2941 42.6693 10.3975C42.614 10.465 42.5504 10.5341 42.505 10.6121C42.4829 10.6503 42.4635 10.6901 42.4431 10.7294C42.4309 10.7521 42.4182 10.7748 42.4055 10.7975C42.3889 10.8273 42.369 10.8561 42.3568 10.8876C42.3452 10.917 42.3524 10.9607 42.333 10.9789C42.26 11.0475 42.2694 11.1366 42.2594 11.2212C42.2522 11.2837 42.2257 11.3457 42.2174 11.4015C42.1936 11.5625 42.2052 11.729 42.203 11.8939C42.203 11.8972 42.2069 11.9027 42.2108 11.9044C42.2655 11.9359 42.2589 11.9901 42.2567 12.0388C42.2489 12.2203 42.3441 12.368 42.4176 12.5207C42.4945 12.68 42.6085 12.8116 42.7274 12.9455C42.9221 13.164 43.1572 13.3095 43.4127 13.4323C43.7175 13.5789 44.0444 13.5855 44.3707 13.5501C44.4935 13.5369 44.6052 13.4511 44.7374 13.45C44.7452 13.45 44.7529 13.4412 44.7612 13.4367C44.8636 13.3803 44.9642 13.3206 45.0682 13.2675C45.2635 13.1679 45.4172 13.0207 45.5472 12.8481C45.5998 12.779 45.68 12.7264 45.6888 12.6291C45.8382 12.5306 45.8089 12.3359 45.9162 12.2103C45.9538 12.1661 45.9411 12.0781 45.9499 12.0101C45.9532 11.983 45.9438 11.9481 45.9571 11.9287C46.0412 11.8081 45.998 11.6732 46.0069 11.5443C46.0085 11.5177 46.013 11.4823 45.9986 11.4641C45.9305 11.375 45.9305 11.2743 45.9322 11.1698C45.9328 11.1211 45.9234 11.0641 45.8979 11.0248C45.8116 10.8932 45.7834 10.7344 45.6805 10.6083C45.6418 10.5607 45.6136 10.5192 45.5494 10.5076V10.507Z" fill="#509154"/>
<path d="M60.3274 14.948C60.3368 14.9398 60.3457 14.9287 60.3568 14.9243C60.3706 14.9182 60.3872 14.9176 60.3999 14.9364C60.1759 14.896 59.9519 14.8562 59.7284 14.8153C59.6449 14.7998 59.4552 14.7063 59.3744 14.6443C59.3639 14.6366 59.3517 14.6272 59.3396 14.6255C59.1731 14.6034 59.0652 14.4684 58.917 14.4081C58.8594 14.3849 58.8229 14.3135 58.772 14.2698C58.6089 14.1293 58.4518 13.9833 58.3152 13.8157C58.2742 13.7659 58.2195 13.7294 58.1763 13.6796C58.1238 13.6193 58.1105 13.5452 58.0607 13.4893C58.0215 13.4445 57.9844 13.3975 57.9374 13.3405C57.8931 13.2437 57.8328 13.1336 57.793 13.0163C57.7432 12.8697 57.652 12.7369 57.647 12.5754C57.6459 12.5483 57.6448 12.5107 57.6282 12.4969C57.5397 12.4238 57.5657 12.3232 57.5535 12.2313C57.4976 11.8148 57.5164 11.3982 57.559 10.9828C57.5629 10.9446 57.5828 10.9081 57.5972 10.8716C57.6099 10.8384 57.6359 10.8063 57.637 10.7731C57.6442 10.6055 57.7277 10.4633 57.7864 10.314C57.8179 10.2326 57.8256 10.1386 57.9047 10.0744C57.9313 10.0529 57.9224 9.98813 57.9435 9.95328C57.9789 9.9046 58.0154 9.85703 58.0497 9.80779C58.1332 9.6872 58.2112 9.56328 58.3168 9.45984C58.4595 9.32099 58.6022 9.18158 58.7438 9.04162C58.8517 8.93541 58.9872 8.86682 59.1034 8.77554C59.2428 8.66545 59.422 8.64499 59.5553 8.53324C59.5741 8.5172 59.6062 8.51443 59.6327 8.51001C59.6985 8.49894 59.7671 8.50669 59.8169 8.44086C59.8335 8.41873 59.8849 8.4226 59.9203 8.4143C60.0337 8.38609 60.1466 8.35567 60.2605 8.32967C60.3048 8.31971 60.3518 8.31528 60.3977 8.31473C60.651 8.31196 60.9044 8.30809 61.1571 8.31086C61.2572 8.31196 61.3607 8.31307 61.4492 8.37503C61.463 8.38499 61.4846 8.38664 61.5023 8.3872C61.6754 8.3883 61.8264 8.46354 61.9829 8.52273C62.3535 8.66269 62.6799 8.86626 62.9742 9.13511C63.1705 9.31435 63.3431 9.51128 63.5184 9.70822C63.5511 9.74473 63.5699 9.79286 63.5959 9.8349C63.6539 9.92784 63.7214 10.0158 63.7696 10.1132C63.8193 10.2149 63.8503 10.3256 63.8918 10.4318C63.904 10.4628 63.9244 10.491 63.9394 10.5209C63.951 10.5441 63.9648 10.5673 63.9709 10.5922C63.9958 10.6929 63.9626 10.8118 64.0655 10.8887C64.0738 10.8954 64.0754 10.9142 64.0754 10.928C64.0815 11.2306 64.0848 11.5326 64.0931 11.8352C64.0964 11.9641 63.9969 12.03 63.9316 12.1163C63.9012 12.1566 63.8614 12.192 63.8215 12.2236C63.7828 12.254 63.7391 12.2783 63.6954 12.301C63.6717 12.3132 63.644 12.3193 63.6169 12.322C63.5527 12.3287 63.4886 12.3348 63.4244 12.3348C62.0477 12.3353 60.6709 12.3348 59.2942 12.3359C59.2356 12.3359 59.1769 12.3431 59.126 12.3464C59.0774 12.4255 59.1443 12.4653 59.1581 12.5184C59.1924 12.6468 59.2732 12.7475 59.3573 12.842C59.4496 12.946 59.5542 13.0395 59.6554 13.1358C59.7688 13.2437 59.9198 13.2923 60.0453 13.3781C60.1764 13.4677 60.333 13.4611 60.4674 13.5291C60.521 13.5562 60.5924 13.5573 60.656 13.5562C60.8302 13.5529 61.0061 13.5551 61.1776 13.5291C61.2926 13.512 61.4005 13.4506 61.5222 13.4522C61.598 13.3471 61.7606 13.3991 61.8314 13.2807C61.8413 13.2641 61.8834 13.268 61.9088 13.2586C62.0543 13.2038 62.1799 13.1198 62.3027 13.0229C62.3956 12.9499 62.4885 12.8669 62.6279 12.8575C62.7905 12.847 62.9553 12.8304 63.0964 12.9118C63.1772 12.9582 63.2983 12.9781 63.3215 13.1004C63.4559 13.1756 63.4238 13.3349 63.4946 13.4434C63.5146 13.4738 63.5146 13.5263 63.5063 13.564C63.4786 13.6835 63.4487 13.8035 63.4061 13.918C63.3879 13.9667 63.3409 14.0087 63.2983 14.0436C63.1976 14.1255 63.1113 14.235 63.004 14.2936C62.8978 14.3517 62.7999 14.4247 62.6904 14.4778C62.5494 14.5464 62.4138 14.6255 62.2706 14.6892C62.1666 14.7356 62.0532 14.76 61.9475 14.8026C61.7617 14.8783 61.5659 14.8894 61.3695 14.9066C61.333 14.9099 61.2987 14.937 61.2628 14.9503C61.2335 14.9608 61.203 14.9746 61.1732 14.9746C60.8933 14.9763 60.614 14.9757 60.3341 14.9757C60.3319 14.9663 60.3297 14.9569 60.328 14.9475L60.3274 14.948ZM62.4719 10.9015C62.4869 10.7969 62.4609 10.7167 62.4183 10.6392C62.3469 10.5098 62.2308 10.4185 62.1367 10.309C62.0698 10.2315 62.0006 10.1563 61.9061 10.1021C61.8314 10.0595 61.7075 9.94996 61.6555 9.93226C61.5559 9.89796 61.4503 9.87418 61.3585 9.82494C61.2683 9.77682 61.1759 9.7652 61.0802 9.75967C60.9425 9.75192 60.8042 9.74473 60.6665 9.75026C60.5426 9.75524 60.4104 9.75303 60.2987 9.79673C60.1228 9.86588 59.9342 9.91733 59.7826 10.0396C59.672 10.1292 59.563 10.2205 59.4563 10.3145C59.4308 10.3366 59.4242 10.3798 59.3993 10.4025C59.2948 10.4982 59.2123 10.606 59.1653 10.7416C59.1509 10.7825 59.1183 10.8168 59.0835 10.871C59.1526 10.8854 59.2179 10.9109 59.2831 10.9109C60.2456 10.9136 61.208 10.9131 62.1705 10.9125C62.27 10.9125 62.3701 10.9048 62.4714 10.9003L62.4719 10.9015Z" fill="#509154"/>
<path d="M22.7563 8.41374C22.7397 8.37612 22.7341 8.36451 22.7225 8.33906C22.8232 8.3291 22.9206 8.3114 23.0179 8.3114C23.2895 8.3114 23.5605 8.31804 23.8321 8.32191C23.8504 8.32191 23.8725 8.31859 23.8869 8.32634C24.0406 8.41374 24.2243 8.38995 24.3803 8.45191C24.6325 8.55259 24.8781 8.67153 25.1192 8.7971C25.226 8.85242 25.3128 8.94425 25.4118 9.01617C25.5722 9.13289 25.7039 9.27893 25.8422 9.41944C25.9987 9.57766 26.1093 9.7674 26.2327 9.94664C26.3068 10.054 26.3898 10.164 26.4113 10.3051C26.423 10.3809 26.4738 10.4495 26.496 10.5253C26.5358 10.6608 26.5657 10.7997 26.6022 10.9363C26.6143 10.9828 26.6365 11.0259 26.6486 11.0724C26.6591 11.1111 26.6669 11.152 26.668 11.1919C26.6724 11.4076 26.6763 11.6228 26.6763 11.8386C26.6774 12.6412 26.6719 13.4445 26.6796 14.2471C26.6818 14.4579 26.5839 14.6211 26.475 14.7782C26.4296 14.8435 26.3378 14.8905 26.241 14.8999C26.2045 14.9032 26.1386 14.8811 26.1425 14.9608C26.1425 14.9657 26.1193 14.9768 26.1071 14.9763C26.0004 14.9713 25.8831 15.0338 25.7924 14.9193C25.7714 14.8933 25.7166 14.8927 25.6762 14.8833C25.5203 14.8463 25.4185 14.7528 25.3626 14.6023C25.3427 14.5486 25.304 14.5022 25.2725 14.4535C25.2404 14.4037 25.1945 14.4081 25.1508 14.4308C25.0982 14.4579 25.0495 14.4917 24.9992 14.5226C24.9538 14.5503 24.9085 14.5785 24.8626 14.6062C24.8548 14.6106 24.8443 14.61 24.836 14.6139C24.4466 14.8313 24.2104 14.8927 23.8647 14.9104C23.826 14.9126 23.7901 14.9099 23.7569 14.9525C23.7359 14.9801 23.6745 14.9845 23.6308 14.9857C23.4654 14.989 23.2994 14.9879 23.1335 14.9857C23.0417 14.984 22.9504 14.9757 22.852 14.9497C22.8796 14.9381 22.9073 14.9265 22.9051 14.9276C22.7314 14.8971 22.5229 14.8723 22.3204 14.8208C22.1766 14.7843 22.0267 14.7434 21.9166 14.6277C21.9067 14.6172 21.8818 14.6194 21.8641 14.6167C21.8414 14.6134 21.8049 14.6189 21.7983 14.6073C21.7203 14.4701 21.5538 14.4607 21.4454 14.3578C21.3325 14.251 21.2202 14.1326 21.0792 14.053C21.0167 14.0176 20.968 13.9578 20.895 13.8931C20.8845 13.8228 20.8358 13.7504 20.7667 13.6757C20.7042 13.6082 20.6212 13.5496 20.593 13.4472C20.5648 13.3443 20.4625 13.278 20.432 13.1706C20.426 13.1502 20.3806 13.1413 20.3452 13.1225C20.3413 13.0788 20.3424 13.0285 20.3319 12.9809C20.3231 12.9388 20.3021 12.8985 20.2849 12.8586C20.2777 12.8426 20.2606 12.8293 20.2578 12.8127C20.2268 12.6385 20.1461 12.4764 20.1439 12.2944C20.1427 12.2075 20.1533 12.1124 20.0802 12.0366C20.0598 12.0156 20.0653 11.9669 20.0648 11.9309C20.0631 11.7982 20.0637 11.6648 20.0631 11.5315C20.0625 11.4126 20.0576 11.2937 20.1123 11.1825C20.1223 11.162 20.1306 11.1388 20.1311 11.1166C20.1367 10.9263 20.2003 10.7488 20.2528 10.5695C20.2899 10.4423 20.3363 10.3162 20.4088 10.2C20.4779 10.0888 20.5194 9.95991 20.5908 9.84983C20.6787 9.71374 20.7988 9.59757 20.879 9.45817C20.9641 9.31102 21.1091 9.22693 21.2114 9.09859C21.2805 9.01174 21.3978 8.96361 21.4918 8.89668C21.5715 8.84025 21.6489 8.78051 21.728 8.72353C21.7457 8.71081 21.7662 8.69587 21.7866 8.692C21.9028 8.67264 21.9996 8.61289 22.0953 8.55038C22.103 8.5454 22.1097 8.53655 22.118 8.53489C22.3248 8.49949 22.5063 8.34847 22.7546 8.41374H22.7563ZM25.2005 11.1543C25.1596 11.0353 25.1259 10.9131 25.0766 10.7974C25.0103 10.6409 24.9113 10.5081 24.7874 10.3859C24.6319 10.2326 24.4228 10.0368 24.2613 9.94387C24.1087 9.85647 23.9433 9.79506 23.7724 9.77681C23.5495 9.75302 23.3232 9.758 23.0987 9.75966C23.0079 9.76021 22.9095 9.76795 22.8287 9.80281C22.6777 9.86864 22.5234 9.92838 22.379 10.0136C22.316 10.0506 22.2845 10.1082 22.2286 10.1452C22.0212 10.2819 21.8624 10.4622 21.7474 10.6813C21.7186 10.736 21.7048 10.8013 21.6672 10.8483C21.5682 10.9723 21.5875 11.1366 21.5084 11.2699C21.4703 11.3335 21.4874 11.4314 21.4841 11.5138C21.4808 11.6007 21.4791 11.6881 21.483 11.7755C21.4863 11.8579 21.4974 11.9398 21.5051 12.0217C21.6235 12.0571 21.5178 12.1649 21.5726 12.2274C21.6019 12.2606 21.5969 12.322 21.6185 12.3646C21.6959 12.5179 21.7783 12.6689 21.8818 12.8072C21.9294 12.8703 21.9802 12.9317 22.0361 12.9875C22.1462 13.0976 22.269 13.1911 22.4023 13.2741C22.5909 13.3914 22.7861 13.481 23.0085 13.5037C23.0406 13.507 23.0738 13.507 23.1042 13.5158C23.42 13.6054 23.722 13.5026 24.0268 13.4489C24.0395 13.4467 24.0517 13.4378 24.0633 13.4312C24.1717 13.3665 24.2796 13.3017 24.3874 13.237C24.4228 13.216 24.4588 13.1961 24.4936 13.174C24.6867 13.0489 24.8305 12.8741 24.9649 12.6932C25.0744 12.5461 25.1607 12.3851 25.174 12.1954C25.1751 12.1821 25.1751 12.1627 25.1834 12.1561C25.273 12.0858 25.2531 11.9824 25.2592 11.8911C25.2686 11.7495 25.2664 11.6068 25.2625 11.4646C25.2597 11.3689 25.2431 11.2732 25.2354 11.1775C25.2299 11.1122 25.2044 11.1869 25.2005 11.1548V11.1543Z" fill="#509154"/>
<path d="M17.0883 14.911C17.1071 14.9287 17.1187 14.9398 17.1474 14.9669C17.0457 14.9746 16.961 14.9862 16.8764 14.9862C15.7619 14.9884 14.6473 14.9884 13.5333 14.9895C13.5195 14.9895 13.5057 14.9901 13.4918 14.9884C13.4249 14.9801 13.358 14.9707 13.291 14.9619C13.2805 14.8579 13.1771 14.9165 13.1312 14.8717C13.0836 14.8258 13.0316 14.7849 12.9791 14.7439C12.9503 14.7218 12.9177 14.7052 12.8817 14.6825C12.8685 14.6139 12.8839 14.5309 12.8109 14.4745C12.7943 14.4618 12.7921 14.4231 12.7932 14.3971C12.7988 14.2599 12.7462 14.1122 12.8602 13.9927C12.8353 13.8223 12.978 13.7426 13.0781 13.6746C13.1749 13.6093 13.3016 13.5568 13.436 13.5601C13.634 13.5645 13.832 13.5623 14.03 13.5623C14.8957 13.5623 15.7619 13.5573 16.6275 13.5645C16.8814 13.5667 17.0739 13.4876 17.2304 13.2824C17.2946 13.1978 17.3244 13.1209 17.3256 13.0235C17.3278 12.8725 17.3433 12.7181 17.2315 12.592C17.2166 12.5754 17.2083 12.5494 17.1906 12.5395C17.0086 12.4355 16.836 12.327 16.6059 12.3309C15.9477 12.3431 15.2889 12.3353 14.6302 12.3353C14.5107 12.3353 14.3907 12.3309 14.2712 12.3298C14.1788 12.3298 14.0886 12.3265 14.0079 12.2689C13.9802 12.249 13.9371 12.2529 13.9028 12.2402C13.8337 12.2147 13.7562 12.2258 13.6998 12.1483C13.6622 12.0975 13.5704 12.0886 13.5101 12.0504C13.4465 12.0095 13.3912 11.9558 13.332 11.9083C13.311 11.8911 13.2894 11.8734 13.2656 11.8601C13.1765 11.8103 13.0986 11.755 13.0615 11.6505C13.0427 11.5974 12.9968 11.5531 12.9592 11.5083C12.8884 11.4237 12.8325 11.3313 12.7744 11.2378C12.718 11.1465 12.7285 11.042 12.6809 10.9678C12.5664 10.7914 12.6018 10.6011 12.5941 10.4169C12.5858 10.226 12.5858 10.0269 12.6301 9.8432C12.6749 9.65844 12.7396 9.47588 12.8463 9.3055C12.937 9.16056 13.067 9.04992 13.1494 8.90222C13.1622 8.87954 13.1876 8.86295 13.2086 8.8458C13.322 8.75507 13.4354 8.6649 13.5494 8.57418C13.5599 8.56588 13.5698 8.5515 13.5814 8.54929C13.7208 8.52273 13.8281 8.41375 13.9736 8.39882C14.0167 8.39439 14.0765 8.4049 14.1014 8.34073C14.1069 8.32635 14.1512 8.32414 14.1777 8.32192C14.2601 8.31584 14.3431 8.30809 14.4255 8.30809C15.3835 8.30754 16.3415 8.31307 17.299 8.30478C17.5772 8.30256 17.7548 8.43699 17.8975 8.64997C17.9097 8.66822 17.9152 8.69201 17.9285 8.70916C17.9434 8.72852 17.9766 8.7418 17.9799 8.76116C18.0042 8.91495 18.0214 9.06597 17.9782 9.22307C17.9428 9.35252 17.8881 9.45652 17.778 9.53341C17.7531 9.55112 17.7398 9.58431 17.7172 9.60643C17.6984 9.62469 17.6768 9.64516 17.6524 9.6518C17.5916 9.66895 17.5158 9.64848 17.4849 9.73201C17.481 9.74252 17.4423 9.74197 17.4196 9.74252C17.309 9.7475 17.1989 9.75414 17.0883 9.75414C16.2453 9.75414 15.4029 9.7569 14.5599 9.74971C14.3602 9.74805 14.2231 9.83048 14.1185 9.98814C13.9836 10.0429 14.0477 10.2022 13.9636 10.2835C13.9609 10.2863 13.9609 10.2929 13.962 10.2968C13.9907 10.4047 14.0073 10.5186 14.056 10.6166C14.0748 10.6542 14.1014 10.7062 14.1335 10.7344C14.1998 10.7941 14.2784 10.8495 14.3619 10.8793C14.4415 10.9081 14.5339 10.9103 14.6208 10.9103C15.3481 10.912 16.076 10.9098 16.8034 10.912C16.8797 10.912 16.9561 10.9335 17.0318 10.9474C17.0722 10.9546 17.112 10.9739 17.1524 10.9745C17.3095 10.9772 17.44 11.0613 17.5828 11.1078C17.6088 11.1161 17.6314 11.1366 17.6574 11.1415C17.7891 11.1686 17.8748 11.2671 17.9749 11.3418C18.0656 11.4098 18.1359 11.4995 18.2338 11.5636C18.3085 11.6129 18.3499 11.7119 18.4075 11.7871C18.4893 11.8944 18.5258 12.0294 18.6232 12.1284C18.6475 12.1533 18.6448 12.2064 18.6514 12.2468C18.6663 12.3359 18.6608 12.4294 18.7261 12.5063C18.7438 12.5273 18.7421 12.5677 18.7421 12.5992C18.7421 12.8238 18.751 13.0495 18.7366 13.2735C18.7288 13.3941 18.6785 13.5114 18.6486 13.6303C18.6365 13.6779 18.6409 13.7592 18.616 13.7692C18.5314 13.8018 18.5408 13.8837 18.5026 13.9379C18.4202 14.0558 18.3505 14.1824 18.267 14.2997C18.2288 14.3534 18.1707 14.3938 18.1209 14.4397C18.0369 14.5171 17.9528 14.5951 17.8654 14.6665C17.7841 14.7329 17.6696 14.7578 17.5722 14.8059C17.4218 14.8806 17.2597 14.901 17.0888 14.9082L17.0883 14.911Z" fill="#509154"/>
<path d="M37.9903 14.9541C38.0075 14.9409 38.0202 14.9309 38.0318 14.9226C37.7597 14.8684 37.5937 14.6991 37.5085 14.4308C37.4433 14.4236 37.388 14.4292 37.3161 14.4767C37.2353 14.5309 37.1479 14.5874 37.05 14.625C36.9504 14.6632 36.8426 14.7035 36.7563 14.776C36.7463 14.7843 36.7331 14.7915 36.7203 14.7943C36.5516 14.8297 36.3829 14.864 36.2137 14.8983C36.1274 14.9154 36.0311 14.8894 35.9576 14.9658C35.9399 14.984 35.8962 14.9824 35.8646 14.9818C35.6395 14.9801 35.4138 14.9768 35.1887 14.9729C35.1771 14.9729 35.166 14.9647 35.1301 14.9508C35.1743 14.932 35.1976 14.9221 35.2214 14.9115C35.2236 14.9193 35.2252 14.9276 35.2274 14.9353C35.0504 14.9121 34.874 14.8811 34.6964 14.8689C34.5316 14.8573 34.3839 14.7854 34.255 14.7091C34.1018 14.6189 33.9082 14.5846 33.7982 14.4242C33.7865 14.407 33.7617 14.3943 33.7406 14.3877C33.588 14.3401 33.5 14.2129 33.3922 14.1105C33.3247 14.0464 33.2461 13.9932 33.1798 13.9285C33.1228 13.8727 33.0785 13.8046 33.0249 13.7454C32.9895 13.7061 32.9469 13.6729 32.8916 13.6226C32.8844 13.5501 32.854 13.4638 32.7776 13.3958C32.75 13.3709 32.7439 13.3244 32.7218 13.2912C32.6941 13.2503 32.6609 13.2132 32.6311 13.1756C32.5874 13.0561 32.542 12.9355 32.4994 12.8138C32.4767 12.7497 32.4563 12.6838 32.4369 12.6186C32.4231 12.5727 32.4342 12.5184 32.375 12.4902C32.3589 12.4825 32.3534 12.4421 32.3517 12.4161C32.3362 12.1506 32.3125 11.8856 32.3114 11.6201C32.3103 11.401 32.3208 11.1786 32.3562 10.9629C32.3822 10.8058 32.4557 10.6558 32.5099 10.5037C32.537 10.4274 32.5713 10.3532 32.5968 10.2764C32.6217 10.2006 32.6521 10.1325 32.6958 10.0628C32.7373 9.99644 32.7738 9.92231 32.818 9.85371C32.8584 9.7912 32.865 9.6944 32.9176 9.65512C32.9768 9.61086 33.0266 9.56052 33.0741 9.50852C33.1958 9.37576 33.3031 9.22916 33.432 9.10414C33.5244 9.01452 33.6416 8.94925 33.7489 8.87567C33.9105 8.76559 34.0819 8.67486 34.26 8.59188C34.3552 8.54763 34.4575 8.52716 34.5465 8.47903C34.6328 8.43257 34.7208 8.41929 34.8126 8.40269C34.8928 8.38831 34.9702 8.35844 35.0499 8.33908C35.103 8.32635 35.1583 8.31474 35.2125 8.31418C35.4609 8.31086 35.7098 8.30699 35.9581 8.31308C36.0328 8.31474 36.1064 8.34903 36.181 8.36729C36.2209 8.37669 36.2612 8.38499 36.3016 8.39108C36.4333 8.41099 36.5632 8.42814 36.6833 8.4995C36.7685 8.54984 36.8697 8.57252 36.9632 8.60903C37.055 8.64499 37.175 8.65827 37.2314 8.72465C37.3398 8.85188 37.5312 8.85908 37.6103 9.01452C37.6142 9.02227 37.6208 9.03057 37.6286 9.03499C37.8211 9.14618 37.9444 9.33205 38.1032 9.47976C38.19 9.56052 38.2525 9.67171 38.351 9.74805C38.3648 9.75857 38.3742 9.77627 38.3825 9.79231C38.4544 9.9378 38.5257 10.0827 38.5954 10.2288C38.6148 10.2692 38.627 10.3123 38.6408 10.3549C38.6602 10.4135 38.6701 10.4755 38.7287 10.5131C38.7453 10.5236 38.7619 10.5485 38.7619 10.5673C38.7664 10.715 38.8123 10.8511 38.8582 10.99C38.8847 11.0696 38.8731 11.1626 38.8737 11.2494C38.8792 12.254 38.882 13.2586 38.8891 14.2632C38.8903 14.4159 38.8399 14.5514 38.7708 14.6792C38.7365 14.7417 38.6762 14.8053 38.612 14.8341C38.419 14.9198 38.2287 15.0438 37.9914 14.9541H37.9903ZM35.5283 13.564C35.7452 13.5579 35.9172 13.575 36.0721 13.4804C36.0975 13.4649 36.1346 13.4694 36.1661 13.4616C36.2015 13.4528 36.2441 13.4506 36.269 13.429C36.3486 13.3604 36.4504 13.3322 36.5395 13.2852C36.7336 13.1823 36.9001 13.0434 37.0334 12.8847C37.2464 12.6313 37.4322 12.3508 37.4433 11.9973C37.4438 11.9713 37.4582 11.9453 37.4654 11.9193C37.4765 11.8806 37.4947 11.8424 37.4964 11.8037C37.5014 11.6986 37.5002 11.5929 37.4986 11.4873C37.4986 11.4563 37.4903 11.4253 37.4831 11.3949C37.4704 11.344 37.4416 11.2926 37.4433 11.2422C37.4488 11.0835 37.3686 10.9496 37.3172 10.8107C37.2735 10.6929 37.1534 10.6105 37.0998 10.4899C37.0102 10.2885 36.8105 10.1961 36.6584 10.0584C36.5998 10.0053 36.5041 9.98261 36.4338 9.92729C36.3038 9.8255 36.1396 9.80337 35.9863 9.77903C35.7927 9.74861 35.5931 9.75801 35.3956 9.74861C35.2175 9.74031 35.0565 9.81333 34.8928 9.86367C34.6865 9.92729 34.5327 10.0905 34.3441 10.1917C34.3192 10.205 34.3065 10.2421 34.2882 10.2681C34.2578 10.3123 34.2379 10.3765 34.1964 10.3975C34.1079 10.4423 34.0764 10.5297 34.0155 10.5939C33.8845 10.7322 33.8656 10.9297 33.7661 11.0857C33.7489 11.1128 33.755 11.1554 33.7534 11.1908C33.75 11.25 33.7705 11.3252 33.7417 11.3661C33.6615 11.4807 33.7019 11.6024 33.6936 11.7207C33.6898 11.7738 33.7019 11.8292 33.7119 11.8823C33.7246 11.9492 33.7484 12.0139 33.7567 12.0809C33.7672 12.1672 33.791 12.2468 33.8192 12.3292C33.8518 12.4261 33.958 12.4869 33.9453 12.6025C33.9442 12.6119 33.9652 12.6219 33.9696 12.6341C34.0294 12.7917 34.1649 12.8924 34.2761 13.0047C34.4204 13.1507 34.5858 13.2957 34.7706 13.3792C35.0206 13.4926 35.2872 13.5927 35.5283 13.5634V13.564Z" fill="#509154"/>
<path d="M68.7709 9.67393C68.7444 9.71044 68.7344 9.73754 68.7217 9.7392C68.6487 9.7475 68.5751 9.75303 68.5015 9.75359C68.1055 9.7558 67.7094 9.75525 67.3134 9.75912C67.2526 9.75967 67.1917 9.77848 67.1259 9.78954C67.1259 9.89354 67.1259 9.98039 67.1259 10.0672C67.1259 11.0038 67.1298 11.9404 67.1215 12.8764C67.1204 13.0014 67.1934 13.0954 67.2006 13.211C67.2847 13.242 67.2764 13.356 67.3698 13.3875C67.4296 13.4074 67.4699 13.4683 67.5336 13.5004C67.6342 13.5512 67.7316 13.564 67.8383 13.5634C68.2714 13.5623 68.7045 13.5678 69.1371 13.5606C69.2787 13.5584 69.386 13.6503 69.5182 13.6641C69.5746 13.7736 69.7079 13.8317 69.7156 13.9772C69.7206 14.0657 69.7671 14.152 69.7687 14.24C69.7737 14.4662 69.6979 14.6654 69.5281 14.8219C69.5038 14.8446 69.4662 14.8518 69.4369 14.8701C69.391 14.8977 69.3119 14.8745 69.3008 14.9591C69.2997 14.968 69.2604 14.9757 69.2383 14.9774C69.1697 14.9829 69.1006 14.9879 69.0314 14.9879C68.5662 14.989 68.1011 14.9907 67.6359 14.989C67.5231 14.989 67.4108 14.9757 67.2957 14.9447C67.3261 14.9364 67.3566 14.9287 67.3743 14.9237C67.2891 14.9077 67.1895 14.8972 67.0949 14.8695C67.0003 14.8418 66.9113 14.797 66.82 14.7594C66.8117 14.7561 66.8056 14.7439 66.7985 14.7439C66.6342 14.7428 66.5766 14.5951 66.4749 14.5094C66.4079 14.4529 66.3344 14.4065 66.2746 14.3368C66.1983 14.2483 66.1192 14.1642 66.06 14.0624C66.0102 13.9772 65.9472 13.9009 65.9217 13.8018C65.9052 13.736 65.8786 13.6729 65.8565 13.6088C65.8509 13.5922 65.8493 13.5634 65.8393 13.5601C65.7702 13.5374 65.789 13.4804 65.7879 13.4334C65.7801 13.1723 65.7707 12.9112 65.7696 12.6501C65.7669 12.1589 65.7691 11.6676 65.7691 11.1764C65.7691 9.70767 65.7713 8.23839 65.7647 6.76967C65.7641 6.60869 65.8034 6.45988 65.8974 6.35091C65.9881 6.2458 66.1181 6.15176 66.2697 6.13571C66.4478 6.11746 66.6253 6.11414 66.7962 6.19988C66.8864 6.24525 66.9456 6.31163 67.0037 6.3852C67.1104 6.51908 67.1253 6.67784 67.1259 6.83993C67.1259 7.24874 67.1259 7.65699 67.1259 8.0658C67.1259 8.12997 67.1259 8.19414 67.1259 8.27767C67.1895 8.28874 67.2498 8.30754 67.3101 8.3081C67.7432 8.31086 68.1757 8.31142 68.6088 8.31031C68.7792 8.31031 68.9009 8.40048 69.0287 8.4995C69.1459 8.59022 69.2029 8.71746 69.2427 8.83861C69.2859 8.96916 69.3119 9.12516 69.2079 9.25682C69.1968 9.27065 69.1858 9.29001 69.1858 9.30661C69.1869 9.42278 69.0967 9.48197 69.0287 9.55167C68.9545 9.62746 68.8644 9.68001 68.7715 9.67503L68.7709 9.67393Z" fill="#509154"/>
<path d="M29.4849 14.9486C29.496 14.9403 29.507 14.9325 29.5336 14.9126C29.3754 14.9126 29.2753 14.8269 29.1796 14.7328C29.1635 14.7174 29.1348 14.7035 29.1331 14.6864C29.1259 14.6216 29.0811 14.6078 29.0214 14.6078C29.0136 14.4894 28.9998 14.381 28.9998 14.272C28.9987 11.5874 28.9987 8.90331 29.0003 6.21867C29.0003 6.12795 29.0169 6.03667 29.0302 5.9465C29.0374 5.89505 29.0308 5.83199 29.1065 5.81871C29.1132 5.81761 29.1231 5.80544 29.1231 5.79824C29.122 5.67433 29.2343 5.62399 29.3073 5.58305C29.4838 5.48514 29.6741 5.39331 29.8876 5.50837C29.9661 5.55041 30.0502 5.57199 30.1254 5.63229C30.3024 5.77501 30.3793 5.94705 30.3793 6.1711C30.3765 7.8871 30.3782 9.60365 30.3782 11.3196C30.3782 12.2651 30.3782 13.2105 30.3782 14.1553C30.3782 14.2427 30.3754 14.3296 30.3743 14.417C30.3727 14.5575 30.2902 14.6482 30.1951 14.7422C30.1066 14.8296 30.017 14.8971 29.8909 14.9088C29.7714 15.0288 29.6281 14.9646 29.4849 14.9475V14.9486Z" fill="#509154"/>
</g>
<defs>
<clipPath id="clip0_75_95">
<rect width="69.9706" height="13" fill="white" transform="translate(0 5)"/>
</clipPath>
</defs>
</svg>
