<svg width="200" height="73" viewBox="0 0 200 73" fill="none" xmlns="http://www.w3.org/2000/svg">
<path d="M10.494 2.10041C10.494 2.02836 10.482 1.96232 10.4581 1.89627C10.4341 1.84223 10.3982 1.7882 10.3562 1.74617C10.3442 1.72816 10.3263 1.71615 10.3083 1.70414C10.2723 1.66811 10.2304 1.63809 10.1885 1.62008H10.1285C10.0626 1.56605 9.97877 1.52402 9.89489 1.5H7.49844C7.16892 1.5 6.89932 1.77018 6.89932 2.10041C6.89932 2.43063 7.16892 2.70082 7.49844 2.70082H8.40909L7.13298 3.93166C5.59325 2.86893 3.50234 3.16313 2.3161 4.61012C1.12985 6.05711 1.24967 8.17655 2.59169 9.47944C3.92771 10.7883 6.04259 10.8424 7.4565 9.61753C8.86442 8.3927 9.10406 6.28526 8.00169 4.77223L9.30177 3.51137V4.50205C9.30177 4.83227 9.57137 5.10246 9.90089 5.10246C10.2304 5.10246 10.5 4.83227 10.5 4.50205V2.10041H10.494ZM5.10198 9.30532C3.77793 9.30532 2.70552 8.23059 2.70552 6.90368C2.70552 5.57678 3.77793 4.50205 5.10198 4.50205C6.42602 4.50205 7.49844 5.57678 7.49844 6.90368C7.49844 8.23059 6.42602 9.30532 5.10198 9.30532Z" fill="#5749FA"/>
<path d="M9.5 16.5027C9.5 14.6335 8.03514 13.0941 6.17032 13.0041C4.30549 12.9142 2.69565 14.3036 2.51566 16.1628C2.34068 18.0221 3.65056 19.6964 5.50038 19.9613C5.50038 19.9713 5.50038 19.9862 5.50038 20.0012V20.501H5.00043C4.72545 20.501 4.50048 20.7259 4.50048 21.0008C4.50048 21.2757 4.72545 21.5006 5.00043 21.5006H5.50038V22.5002C5.50038 22.7751 5.72536 23 6.00033 23C6.27531 23 6.50029 22.7751 6.50029 22.5002V21.5006H7.00024C7.27521 21.5006 7.50019 21.2757 7.50019 21.0008C7.50019 20.7259 7.27521 20.501 7.00024 20.501H6.50029V20.0012C6.50029 20.0012 6.50029 19.9713 6.50029 19.9613C8.22012 19.7114 9.5 18.242 9.5 16.5027ZM6.00033 19.0017C4.62046 19.0017 3.50057 17.8821 3.50057 16.5027C3.50057 15.1233 4.62046 14.0037 6.00033 14.0037C7.3802 14.0037 8.5001 15.1233 8.5001 16.5027C8.5001 17.8821 7.3802 19.0017 6.00033 19.0017Z" fill="#FF459E"/>
<path d="M27.3276 6.90419C25.9811 5.94524 25.0244 5.96608 24.663 6.02168C24.5638 6.03557 24.4716 6.09811 24.4149 6.17455L21.1408 10.608L19.5392 12.776C19.3408 13.0401 19.2274 13.3597 19.2132 13.6863L19.0006 17.5916C18.9935 17.7237 19.0502 17.8488 19.1636 17.9252C19.2699 18.0016 19.4116 18.0225 19.5392 17.9738L23.2669 16.5771C23.5787 16.459 23.8551 16.2574 24.0535 15.9864L25.3575 14.2214L28.9222 9.39191C28.9859 9.30852 29.0143 9.20428 28.993 9.10005C28.9363 8.73176 28.6458 7.84924 27.3205 6.90419H27.3276ZM23.281 15.7988L21.8353 16.3478C21.7786 16.3686 21.7148 16.3478 21.6794 16.3061C21.4597 16.0351 21.2046 15.7919 20.914 15.5904C20.6306 15.3888 20.3187 15.2221 19.9857 15.1039C19.929 15.0831 19.8935 15.0275 19.9006 14.9719L19.9857 13.4501L20.3754 12.9289C20.3754 12.9289 21.2471 12.8108 22.3881 13.6238C23.522 14.4368 23.6779 15.2846 23.6779 15.2846L23.2881 15.8058L23.281 15.7988Z" fill="#565C63"/>
<path d="M45.7553 14.8946C45.8914 15.0351 46.1101 15.0351 46.2463 14.8946L49.7285 11.3665C49.7822 11.3183 49.8336 11.2676 49.8818 11.2137C49.9472 11.1434 50.0499 11.016 50.1915 10.8297C50.33 10.6483 50.4568 10.4571 50.5705 10.2586C50.6942 10.0347 50.7946 9.79691 50.8693 9.55016C50.9541 9.28951 50.9984 9.01661 51 8.74126C51.0008 7.88334 50.7642 7.21089 50.2919 6.72637C49.8195 6.24185 49.1667 6 48.3333 6C48.0928 6.00163 47.8547 6.04412 47.6275 6.12583C47.3909 6.20754 47.1661 6.32192 46.9575 6.46573C46.7505 6.60872 46.5731 6.7419 46.4245 6.86691C46.2766 6.9911 46.135 7.12428 46.0004 7.26564C45.8665 7.1251 45.7249 6.99192 45.5763 6.86691C45.4277 6.7419 45.2495 6.6079 45.0433 6.46573C44.8355 6.32274 44.6098 6.20835 44.3733 6.12583C44.1461 6.04412 43.9072 6.00163 43.6675 6C42.8341 6 42.1812 6.24185 41.7089 6.72637C41.2366 7.21008 41 7.88252 41 8.74208C41 9.60163 41.4264 10.4841 42.2785 11.3788L45.7553 14.8946Z" fill="white"/>
<rect x="60.75" y="5.75" width="14.5" height="12.5" rx="1.25" stroke="black" stroke-width="1.5"/>
<path d="M64 4L64 5" stroke="black" stroke-width="1.5" stroke-linecap="round"/>
<path d="M72 4L72 5" stroke="black" stroke-width="1.5" stroke-linecap="round"/>
<line x1="61" y1="10.25" x2="75" y2="10.25" stroke="black" stroke-width="1.5"/>
<path d="M84 6.5H100" stroke="black" stroke-width="1.5" stroke-linecap="round"/>
<path d="M84 11.5H100" stroke="black" stroke-width="1.5" stroke-linecap="round"/>
<path d="M84 16.5H100" stroke="black" stroke-width="1.5" stroke-linecap="round"/>
<path d="M98.25 6.5C98.25 7.4665 97.4665 8.25 96.5 8.25C95.5335 8.25 94.75 7.4665 94.75 6.5C94.75 5.5335 95.5335 4.75 96.5 4.75C97.4665 4.75 98.25 5.5335 98.25 6.5Z" fill="white" stroke="black" stroke-width="1.5"/>
<path d="M98.25 16.5C98.25 17.4665 97.4665 18.25 96.5 18.25C95.5335 18.25 94.75 17.4665 94.75 16.5C94.75 15.5335 95.5335 14.75 96.5 14.75C97.4665 14.75 98.25 15.5335 98.25 16.5Z" fill="white" stroke="black" stroke-width="1.5"/>
<path d="M89.25 11.5C89.25 12.4665 88.4665 13.25 87.5 13.25C86.5335 13.25 85.75 12.4665 85.75 11.5C85.75 10.5335 86.5335 9.75003 87.5 9.75003C88.4665 9.75003 89.25 10.5335 89.25 11.5Z" fill="white" stroke="black" stroke-width="1.5"/>
<mask id="mask0_1_173" style="mask-type:alpha" maskUnits="userSpaceOnUse" x="104" y="0" width="24" height="24">
<rect x="104" width="24" height="24" fill="black"/>
</mask>
<g mask="url(#mask0_1_173)">
<circle cx="115.283" cy="10.8848" r="7.48528" transform="rotate(-45 115.283 10.8848)" stroke="#121619" stroke-width="2"/>
<path d="M120.969 16.9689L124.962 20.962" stroke="#121619" stroke-width="2" stroke-linecap="round"/>
</g>
<g clip-path="url(#clip0_1_173)">
<path d="M140 22C134.486 22 130 17.5141 130 11.9997C130 6.4853 134.486 2 140 2C145.513 2 149.999 6.4859 149.999 11.9997C149.999 17.5135 145.513 21.9994 140 21.9994V22ZM140 3.29459C135.2 3.29459 131.295 7.19987 131.295 11.9997C131.295 16.7995 135.2 20.7048 140 20.7048C144.8 20.7048 148.705 16.7995 148.705 11.9997C148.705 7.19987 144.8 3.29459 140 3.29459Z" fill="#FF5754"/>
<path d="M144.527 11.373C145.369 11.373 146.051 10.6058 146.051 9.65928C146.051 8.7128 145.369 7.94553 144.527 7.94553C143.685 7.94553 143.003 8.7128 143.003 9.65928C143.003 10.6058 143.685 11.373 144.527 11.373Z" fill="#FF5754"/>
<path d="M135.473 11.373C136.315 11.373 136.997 10.6058 136.997 9.65928C136.997 8.7128 136.315 7.94553 135.473 7.94553C134.631 7.94553 133.949 8.7128 133.949 9.65928C133.949 10.6058 134.631 11.373 135.473 11.373Z" fill="#FF5754"/>
<path d="M143.247 17.303C142.995 17.303 142.748 17.1864 142.59 16.9676C141.981 16.1238 140.675 15.8984 140 15.8984C139.324 15.8984 138.067 16.1962 137.37 17.0172C137.082 17.358 136.571 17.3999 136.23 17.1105C135.889 16.8217 135.847 16.311 136.137 15.9702C137.269 14.6361 139.098 14.2797 140 14.2797C140.284 14.2797 141.032 14.3102 141.864 14.5925C142.75 14.8932 143.436 15.3734 143.903 16.0198C144.164 16.3822 144.083 16.888 143.72 17.1493C143.577 17.2528 143.412 17.3024 143.247 17.3024L143.247 17.303Z" fill="#FF5754"/>
</g>
<g clip-path="url(#clip1_1_173)">
<path d="M168.527 11.373C169.369 11.373 170.051 10.6058 170.051 9.65928C170.051 8.7128 169.369 7.94553 168.527 7.94553C167.685 7.94553 167.003 8.7128 167.003 9.65928C167.003 10.6058 167.685 11.373 168.527 11.373Z" fill="#57CD78"/>
<path d="M159.473 11.373C160.315 11.373 160.997 10.6058 160.997 9.65928C160.997 8.7128 160.315 7.94553 159.473 7.94553C158.631 7.94553 157.949 8.7128 157.949 9.65928C157.949 10.6058 158.631 11.373 159.473 11.373Z" fill="#57CD78"/>
<path d="M164 22C158.486 22 154 17.5141 154 11.9997C154 6.4853 158.486 2 164 2C169.513 2 173.999 6.4859 173.999 11.9997C173.999 17.5135 169.513 21.9994 164 21.9994V22ZM164 3.29459C159.2 3.29459 155.295 7.19987 155.295 11.9997C155.295 16.7995 159.2 20.7048 164 20.7048C168.8 20.7048 172.705 16.7995 172.705 11.9997C172.705 7.19987 168.8 3.29459 164 3.29459Z" fill="#57CD78"/>
<path d="M164 17.303C163.716 17.303 162.968 17.2725 162.136 16.9903C161.25 16.6895 160.564 16.2093 160.097 15.563C159.836 15.2006 159.917 14.6947 160.28 14.4334C160.642 14.1721 161.148 14.2534 161.409 14.6158C162.019 15.4595 163.324 15.6849 164 15.6849C164.675 15.6849 165.932 15.3872 166.629 14.5662C166.918 14.2253 167.428 14.1835 167.769 14.4729C168.11 14.7623 168.152 15.2723 167.863 15.6132C166.731 16.9472 164.901 17.3036 163.999 17.3036L164 17.303Z" fill="#57CD78"/>
</g>
<path d="M188 12.9958C189.061 12.9958 190.078 12.5744 190.828 11.8243C191.579 11.0741 192 10.0567 192 8.99583C192 7.93497 191.579 6.91755 190.828 6.16741C190.078 5.41726 189.061 4.99583 188 4.99583C186.939 4.99583 185.922 5.41726 185.172 6.16741C184.421 6.91755 184 7.93497 184 8.99583C184 10.0567 184.421 11.0741 185.172 11.8243C185.922 12.5744 186.939 12.9958 188 12.9958Z" stroke="#565C63" stroke-width="1.5" stroke-linecap="round" stroke-linejoin="round"/>
<path d="M181.106 19.281V17.9722C181.106 16.728 181.604 15.5348 182.489 14.655C183.375 13.7752 184.576 13.281 185.828 13.281H190.385C191.637 13.281 192.838 13.7752 193.723 14.655C194.609 15.5348 195.106 16.728 195.106 17.9722V19.281" stroke="#565C63" stroke-width="1.5" stroke-linecap="round" stroke-linejoin="round"/>
<path d="M6.75 30.653C6.75 30.1418 6.98673 29.6516 7.40811 29.2901C7.82948 28.9287 8.40099 28.7256 8.99691 28.7256C9.59283 28.7256 10.165 28.9287 10.5863 29.2901C11.0077 29.6516 11.2444 30.1418 11.2444 30.653C11.2681 31.0702 11.2438 31.6167 10.6019 32.2592C9.95988 32.9017 8.99691 32.9017 8.99691 33.8654C8.99691 34.4727 8.97313 34.5942 8.99677 35.1504" stroke="white" stroke-width="1.25" stroke-linecap="round" stroke-linejoin="round"/>
<path d="M9 37.7256V37.7299" stroke="white" stroke-width="1.5" stroke-linecap="round" stroke-linejoin="round"/>
<path d="M27 37.0133L27 31.68" stroke="white" stroke-width="1.5" stroke-linecap="round" stroke-linejoin="round"/>
<path d="M27 29.0133L27 29" stroke="white" stroke-width="1.5" stroke-linecap="round" stroke-linejoin="round"/>
<g clip-path="url(#clip2_1_173)">
<path fill-rule="evenodd" clip-rule="evenodd" d="M45 26.3853C41.3468 26.3853 38.3853 29.3468 38.3853 33C38.3853 36.6532 41.3468 39.6147 45 39.6147C48.6532 39.6147 51.6147 36.6532 51.6147 33C51.6147 29.3468 48.6532 26.3853 45 26.3853ZM37 33C37 28.5817 40.5817 25 45 25C49.4183 25 53 28.5817 53 33C53 37.4183 49.4183 41 45 41C40.5817 41 37 37.4183 37 33Z" fill="#F89089"/>
<path d="M48.6364 31.5732C48.6364 32.0026 48.5671 32.4043 48.4216 32.7645C48.2831 33.1247 48.0961 33.4364 47.8606 33.6996C47.6251 33.9628 47.3481 34.1636 47.0433 34.3091C46.7385 34.4545 46.4268 34.5238 46.1013 34.5238H43.6771V37.6061H42.2156V28.6087H45.9697C46.3229 28.6087 46.6554 28.6779 46.974 28.8234C47.2926 28.9619 47.5766 29.1697 47.826 29.426C48.0684 29.6892 48.2693 30.0009 48.4147 30.361C48.5602 30.7212 48.6294 31.1229 48.6294 31.5732H48.6364ZM45.9766 33.3186C46.1221 33.3186 46.2675 33.2771 46.413 33.2009C46.5515 33.1247 46.6831 33.0069 46.7939 32.8615C46.9048 32.716 46.9948 32.529 47.0641 32.3143C47.1333 32.0996 47.168 31.8502 47.168 31.5732C47.168 31.2961 47.1333 31.0537 47.0641 30.832C46.9948 30.6104 46.9117 30.4234 46.8078 30.271C46.697 30.1255 46.5723 30.0078 46.4268 29.9316C46.2883 29.8554 46.1429 29.8139 46.0043 29.8139H43.6909V33.3255H45.9835L45.9766 33.3186Z" fill="#F89089"/>
</g>
<path fill-rule="evenodd" clip-rule="evenodd" d="M69.6324 33C69.6324 29.3338 66.6648 26.3667 63 26.3667V25C67.421 25 71 28.5799 71 33C71 37.4201 67.421 41 63 41C58.579 41 55 37.4201 55 33C55 30.8851 55.8185 28.9637 57.163 27.5302L58.1608 28.4649C57.0449 29.6546 56.3676 31.2452 56.3676 33C56.3676 36.6662 59.3352 39.6333 63 39.6333C66.6648 39.6333 69.6324 36.6662 69.6324 33Z" fill="#5E63EF"/>
<path fill-rule="evenodd" clip-rule="evenodd" d="M58.0179 27.2802C58.1691 27.3803 58.2743 27.5363 58.3104 27.714L58.7982 30.1149L57.4579 30.3869L57.1063 28.6558L55.3757 29.0074L55.1033 27.6681L57.5041 27.1803C57.6818 27.1442 57.8666 27.1801 58.0179 27.2802Z" fill="#5E63EF"/>
<rect x="62" y="28" width="1.4" height="5" fill="#5E63EF"/>
<rect x="66" y="33" width="1.4" height="4" transform="rotate(90 66 33)" fill="#5E63EF"/>
<mask id="path-38-inside-1_1_173" fill="white">
<path fill-rule="evenodd" clip-rule="evenodd" d="M84 26H78V30H74V36H78V40H84V36H88L88 30H84V26Z"/>
</mask>
<path d="M78 26V24.6H76.6V26H78ZM84 26H85.4V24.6H84V26ZM78 30V31.4H79.4V30H78ZM74 30V28.6H72.6V30H74ZM74 36H72.6V37.4H74V36ZM78 36H79.4V34.6H78V36ZM78 40H76.6V41.4H78V40ZM84 40V41.4H85.4V40H84ZM84 36V34.6H82.6V36H84ZM88 36V37.4H89.4L89.4 36L88 36ZM88 30L89.4 30L89.4 28.6H88V30ZM84 30H82.6V31.4H84V30ZM78 27.4H84V24.6H78V27.4ZM79.4 30V26H76.6V30H79.4ZM74 31.4H78V28.6H74V31.4ZM75.4 36V30H72.6V36H75.4ZM78 34.6H74V37.4H78V34.6ZM79.4 40V36H76.6V40H79.4ZM84 38.6H78V41.4H84V38.6ZM82.6 36V40H85.4V36H82.6ZM88 34.6H84V37.4H88V34.6ZM86.6 30L86.6 36L89.4 36L89.4 30L86.6 30ZM84 31.4H88V28.6H84V31.4ZM82.6 26V30H85.4V26H82.6Z" fill="#57CD78" mask="url(#path-38-inside-1_1_173)"/>
<path d="M99.25 41.6071L94.1222 36.4496C92.7557 35.0717 92 33.2426 92 31.2921C92 29.3415 92.7557 27.5124 94.1222 26.1345C95.4921 24.7601 97.3141 24 99.25 24C101.186 24 103.008 24.7601 104.378 26.1345C105.748 27.5124 106.5 29.3415 106.5 31.2921C106.5 33.2426 105.744 35.0717 104.378 36.4496L99.25 41.6071ZM99.25 25.0412C97.5902 25.0412 96.0305 25.6903 94.8538 26.8738C93.6805 28.0538 93.0318 29.6226 93.0318 31.2955C93.0318 32.9684 93.6771 34.5337 94.8538 35.7173L99.25 40.139L103.646 35.7173C104.819 34.5372 105.468 32.965 105.468 31.2955C105.468 29.6261 104.823 28.0538 103.646 26.8738C102.473 25.6937 100.91 25.0412 99.25 25.0412Z" fill="#808892"/>
<path d="M99.25 35.231C98.2044 35.231 97.221 34.8215 96.4825 34.0788C95.744 33.336 95.3369 32.3469 95.3369 31.2952C95.3369 30.2436 95.744 29.2544 96.4825 28.5117C97.221 27.7689 98.2044 27.3594 99.25 27.3594C100.296 27.3594 101.279 27.7689 102.017 28.5117C102.756 29.2544 103.163 30.2436 103.163 31.2952C103.163 32.3469 102.756 33.336 102.017 34.0788C101.279 34.8215 100.296 35.231 99.25 35.231ZM99.25 28.3937C98.4805 28.3937 97.7558 28.6956 97.2141 29.244C96.6688 29.7924 96.3686 30.5178 96.3686 31.2917C96.3686 32.0657 96.6688 32.7946 97.2141 33.3395C97.7593 33.8879 98.4805 34.1898 99.25 34.1898C100.02 34.1898 100.744 33.8879 101.286 33.3395C101.831 32.7911 102.128 32.0657 102.128 31.2917C102.128 30.5178 101.828 29.7889 101.286 29.244C100.741 28.6956 100.02 28.3937 99.25 28.3937Z" fill="#808892"/>
<g clip-path="url(#clip3_1_173)">
<path d="M120.895 41C120.058 41 119.269 40.6735 118.674 40.082L109.918 31.3257C109.326 30.7341 109 29.9455 109 29.1051C109 28.2646 109.326 27.4792 109.918 26.8844L111.806 25L116.011 29.2053L114.65 30.5661C114.459 30.7568 114.459 31.0703 114.65 31.2642L118.739 35.3499C118.93 35.5406 119.243 35.5406 119.434 35.3499L120.795 33.9891L125 38.1943L123.112 40.082C122.521 40.6735 121.732 41 120.892 41H120.895ZM111.806 26.3705L110.603 27.5697C110.193 27.9802 109.966 28.5232 109.966 29.1051C109.966 29.6869 110.193 30.2299 110.603 30.6404L119.36 39.3968C119.77 39.8073 120.313 40.0335 120.895 40.0335C121.477 40.0335 122.02 39.8073 122.43 39.3968L123.633 38.1943L120.798 35.3596L120.122 36.0352C119.554 36.604 118.626 36.604 118.054 36.0352L113.965 31.9495C113.396 31.3806 113.396 30.4529 113.965 29.8808L114.64 29.2053L111.806 26.3705Z" fill="#808892"/>
</g>
<path d="M142 33C142 36.866 138.866 40 135 40C131.134 40 128 36.866 128 33C128 29.134 131.134 26 135 26C138.866 26 142 29.134 142 33Z" stroke="#808892"/>
<path d="M135 29H134V33H135V29Z" fill="#808892"/>
<path d="M138 33H134V34H138V33Z" fill="#808892"/>
<path d="M16.5 46C16.5 45.1716 15.8284 44.5 15 44.5C14.1716 44.5 13.5 45.1716 13.5 46L16.5 46ZM13.9393 70.0607C14.5251 70.6464 15.4749 70.6464 16.0607 70.0607L25.6066 60.5147C26.1924 59.9289 26.1924 58.9792 25.6066 58.3934C25.0208 57.8076 24.0711 57.8076 23.4853 58.3934L15 66.8787L6.51472 58.3934C5.92893 57.8076 4.97918 57.8076 4.3934 58.3934C3.80761 58.9792 3.80761 59.9289 4.3934 60.5147L13.9393 70.0607ZM13.5 46L13.5 69L16.5 69L16.5 46L13.5 46Z" fill="white"/>
<path fill-rule="evenodd" clip-rule="evenodd" d="M42.8174 67.7136C43.2237 68.2373 43.8096 68.5385 44.4231 68.5385L44.4251 68.5404C45.0385 68.5404 45.6244 68.2392 46.0308 67.7156C46.0347 67.7079 46.0465 67.6925 46.0465 67.6925L51.3746 60.2806C51.3824 60.271 51.3884 60.2615 51.3943 60.2519L51.3943 60.2519C52.4477 58.8554 53.0769 56.9084 53.0769 55.0305C53.0769 50.3904 49.1948 46.6154 44.4231 46.6154C39.6513 46.6154 35.7692 50.3904 35.7692 55.0305C35.7692 56.9104 36.3985 58.8573 37.4558 60.2538C37.4598 60.2634 37.4716 60.2787 37.4716 60.2787L42.7996 67.6906L42.8174 67.7136ZM41.5385 55.2692C41.5385 56.8602 42.8321 58.1538 44.4231 58.1538C46.0131 58.1538 47.3077 56.8592 47.3077 55.2692C47.3077 53.6792 46.0141 52.3846 44.4231 52.3846C42.8321 52.3846 41.5385 53.6782 41.5385 55.2692Z" fill="#D6DBE1"/>
<defs>
<clipPath id="clip0_1_173">
<rect width="20" height="20" fill="white" transform="translate(130 2)"/>
</clipPath>
<clipPath id="clip1_1_173">
<rect width="20" height="20" fill="white" transform="translate(154 2)"/>
</clipPath>
<clipPath id="clip2_1_173">
<rect width="16" height="16" fill="white" transform="translate(37 25)"/>
</clipPath>
<clipPath id="clip3_1_173">
<rect width="16" height="16" fill="white" transform="translate(109 25)"/>
</clipPath>
</defs>
</svg>
