<svg width="40" height="40" viewBox="0 0 40 40" fill="none" xmlns="http://www.w3.org/2000/svg">
<g clip-path="url(#clip0_1863_4301)">
<mask id="mask0_1863_4301" style="mask-type:luminance" maskUnits="userSpaceOnUse" x="0" y="0" width="40" height="40">
<path d="M0 0H40V40H0V0Z" fill="white"/>
</mask>
<g mask="url(#mask0_1863_4301)">
<path fill-rule="evenodd" clip-rule="evenodd" d="M21.2456 8.84206C21.7035 8.21669 22.2918 7.69825 22.9698 7.32261C23.6478 6.94698 24.3993 6.72311 25.1723 6.6665C25.2391 7.386 25.159 8.11158 24.9369 8.79918C24.7147 9.48679 24.3552 10.1221 23.8801 10.6665C23.4603 11.2517 22.8978 11.7198 22.2461 12.0263C21.5944 12.3328 20.8752 12.4675 20.1567 12.4176C20.081 11.7792 20.1387 11.1321 20.3261 10.5172C20.5136 9.90226 20.8267 9.33298 21.2456 8.84539" fill="black"/>
<path fill-rule="evenodd" clip-rule="evenodd" d="M20.3656 13.8386C21.2111 13.8386 22.7789 12.6775 24.82 12.6775C25.7826 12.6361 26.7395 12.8445 27.5976 13.2826C28.4557 13.7207 29.1858 14.3735 29.7167 15.1775C28.8883 15.6584 28.2018 16.3499 27.727 17.1818C27.2523 18.0137 27.006 18.9564 27.0133 19.9142C27.0184 20.998 27.3398 22.0568 27.9381 22.9606C28.5363 23.8644 29.3854 24.5739 30.3811 25.002C30.3811 25.002 28.0267 31.6287 24.8467 31.6287C23.3856 31.6287 22.25 30.6442 20.7111 30.6442C19.1433 30.6442 17.5867 31.6653 16.5722 31.6653C13.6667 31.6664 10 25.3798 10 20.3264C10 15.3553 13.1056 12.7464 16.0178 12.7464C17.9067 12.7464 19.3811 13.8386 20.3656 13.8386Z" fill="black"/>
</g>
</g>
<defs>
<clipPath id="clip0_1863_4301">
<rect width="40" height="40" fill="white"/>
</clipPath>
</defs>
</svg>
