<svg width="200" height="59" viewBox="0 0 200 59" fill="none" xmlns="http://www.w3.org/2000/svg">
<path fill-rule="evenodd" clip-rule="evenodd" d="M21.6644 11.7743C21.8779 11.9641 22 12.2361 22 12.5217V20.9855C22 22.09 21.1046 22.9855 20 22.9855H14.5L14.5 18C14.5 17.4477 14.0523 17 13.5 17L12.5 17C11.9477 17 11.5 17.4477 11.5 18L11.5 22.9855H6C4.89543 22.9855 4 22.09 4 20.9855V12.4888C4 12.2224 4.10626 11.9671 4.29522 11.7794L11.8333 4.29058C12.208 3.9183 12.8076 3.90167 13.2024 4.25259L21.6644 11.7743ZM11.5 22.9855V23H14.5V22.9855H11.5Z" fill="#21272A"/>
<path fill-rule="evenodd" clip-rule="evenodd" d="M32 4C30.8954 4 30 4.89543 30 6V21C30 22.1046 30.8954 23 32 23H46C47.1046 23 48 22.1046 48 21V6C48 4.89543 47.1046 4 46 4H32ZM34 10C34 9.44772 34.4477 9 35 9H43C43.5523 9 44 9.44772 44 10C44 10.5523 43.5523 11 43 11H35C34.4477 11 34 10.5523 34 10ZM34 14C34 13.4477 34.4477 13 35 13H41C41.5523 13 42 13.4477 42 14C42 14.5523 41.5523 15 41 15H35C34.4477 15 34 14.5523 34 14Z" fill="#21272A"/>
<path d="M60 13C60.5523 13 61 13.4477 61 14L61 23L56 23L56 14C56 13.4477 56.4477 13 57 13L60 13Z" fill="#21272A"/>
<path d="M67 4C67.5523 4 68 4.44772 68 5L68 23L63 23L63 5C63 4.44771 63.4477 4 64 4L67 4Z" fill="#21272A"/>
<path d="M74 9C74.5523 9 75 9.44772 75 10L75 23L70 23L70 10C70 9.44772 70.4477 9 71 9L74 9Z" fill="#21272A"/>
<g clip-path="url(#clip0_1_204)">
<circle cx="83.9497" cy="16" r="3.5" transform="rotate(-45 83.9497 16)" fill="#21272A"/>
<circle cx="88.1924" cy="20.2426" r="3.5" transform="rotate(-45 88.1924 20.2426)" fill="#21272A"/>
<circle cx="93.5564" cy="6.3933" r="3.5" transform="rotate(-45 93.5564 6.3933)" fill="#21272A"/>
<circle cx="97.7989" cy="10.6361" r="3.5" transform="rotate(-45 97.7989 10.6361)" fill="#21272A"/>
<path d="M84.7279 15.4793L93.2132 6.99397L97.4558 11.2366L88.9705 19.7219L84.7279 15.4793Z" fill="#21272A"/>
</g>
<path fill-rule="evenodd" clip-rule="evenodd" d="M115.108 22.2852C115.461 22.739 115.968 23 116.5 23L116.502 23.0017C117.033 23.0017 117.541 22.7407 117.893 22.2868C117.897 22.2802 117.907 22.2669 117.907 22.2669L122.525 15.8432C122.531 15.8349 122.537 15.8266 122.542 15.8183C123.455 14.608 124 12.9206 124 11.2931C124 7.27168 120.636 4 116.5 4C112.364 4 109 7.27168 109 11.2931C109 12.9223 109.545 14.6097 110.462 15.8199C110.465 15.8282 110.475 15.8415 110.475 15.8415L115.093 22.2652L115.108 22.2852ZM114 11.5C114 12.8788 115.121 14 116.5 14C117.878 14 119 12.878 119 11.5C119 10.122 117.879 9 116.5 9C115.121 9 114 10.1212 114 11.5Z" fill="#21272A"/>
<path d="M7 50H25" stroke="black" stroke-width="2" stroke-linecap="round"/>
<path d="M7 43H25" stroke="black" stroke-width="2" stroke-linecap="round"/>
<path d="M7 36H25" stroke="black" stroke-width="2" stroke-linecap="round"/>
<defs>
<clipPath id="clip0_1_204">
<rect width="26" height="26" fill="white" transform="translate(78)"/>
</clipPath>
</defs>
</svg>
